<svg xmlns="http://www.w3.org/2000/svg" viewBox="0 0 441 223"><path fill="#FFF" d="M351.584 92.864c37.1-15.167 70.093-15.272 89.416-8.781-29.463-5.989-79.407 14.768-119.577 42.708-17.912 12.457-38.689 29.776-54.766 44.394l-.486.442c-29.494 26.875-45.775 38.85-65.127 46.7-21.102 8.56-39.903 4.656-48.044-5.988 13.079 5.721 43.426-2.93 87.948-44.703 45.375-42.575 77.39-61.181 110.636-74.772zm-26-23c37.1-15.167 70.093-15.272 89.416-8.781-29.463-5.989-79.407 14.768-119.577 42.708-17.912 12.457-38.689 29.776-54.766 44.394l-.486.442c-29.494 26.875-45.775 38.85-65.127 46.7-21.102 8.56-39.903 4.656-48.044-5.988 13.079 5.721 43.426-2.93 87.948-44.703 45.375-42.575 77.39-61.181 110.636-74.772zm-27-23c37.1-15.167 70.093-15.272 89.416-8.781-29.463-5.989-79.407 14.768-119.577 42.708-17.912 12.457-38.689 29.776-54.766 44.394l-.486.442c-29.494 26.875-45.775 38.85-65.127 46.7-21.102 8.56-39.903 4.656-48.044-5.988 13.079 5.721 43.426-2.93 87.948-44.703 45.375-42.575 77.39-61.181 110.636-74.772zm-26-21c37.1-15.167 70.093-15.272 89.416-8.781-29.463-5.989-79.407 14.768-119.577 42.708-17.912 12.457-38.689 29.776-54.766 44.394l-.486.442c-29.494 26.875-45.775 38.85-65.127 46.7-21.102 8.56-39.903 4.656-48.044-5.988 13.079 5.721 43.426-2.93 87.948-44.703 45.375-42.575 77.39-61.181 110.636-74.772zM55.079 0c3.06 1.604 5.854 4.81 16.896 5.479 16.373.99 15.832 8.419 27.274 8.151 7.313-.17 15.166-4.276 30.466-4.81 7.982-.28 12.373 3.34 9.712 9.22-7.317-1.069-19.956-.133-19.956 3.34 0 1.07 1.064 2.406 6.652 2.406 7.982 0 17.162-4.677 27.805-4.677 10.644 0 19.823 2.94 28.072 6.147-12.736-.072-16.73 4.145-16.896 8.152-.133 3.207-1.053 7.36-10.643 7.483-10.644.136-17.163-6.28-24.613-6.28-3.858 0-8.116 2.937-8.116 6.68s2.528 7.751 12.64 8.019c10.11.267 17.295-2.807 28.337 1.069-3.06 4.543-3.725 11.492-1.463 17.639-13.171-8.82-27.939-14.967-44.702-15.1-31.8-.254-56.143 16.704-56.276 45.434-.11 22.986 15.565 34.343 30.067 35.546-23.415 8.82-56.01-10.69-56.01-47.706 0-29.132 21.818-52.918 34.058-59.733-19.69 9.755-34.325 25.122-42.972 52.25C22.085 67.348 9.18 64.275 0 59.465c9.047-5.746 16.763-2.005 21.952-2.138 4.391-.114 9.845-1.203 11.441-6.014-1.064-2.138-7.317-6.147-11.441-8.419 8.647-5.078 12.905-1.603 17.96-1.603 4.374 0 7.586-3.064 9.313-6.682-.399-3.073-5.455-7.082-10.244-10.022 9.313-2.539 17.03.668 23.681.668 8.116 0 14.236-3.875 19.956-5.345-.665-1.336-2.926-2.004-6.519-2.138C64.66 17.347 60.001 7.35 55.08 0zM211 37l-13.556 8.691c-4.161 2.667-8.76 5.613-13.796 8.838L179.788 57l1.059-6.174-1.367-.325c-8.216-1.95-16.71-3.9-25.48-5.85 27.64 2.55 45.626-2.685 57-7.651z" fill-rule="nonzero"/></svg>