<svg xmlns="http://www.w3.org/2000/svg" viewBox="0 0 483.2 195.7"><path fill="#FFFFFF" d="M421.5 142.8V.1l-50.7 32.3v161.1h112.4v-50.7zM299.2 133.2c-8.3 7.3-19.2 11.7-31.1 11.7-26 0-47.1-21.1-47.1-47.1s21.1-47.1 47.1-47.1c16.7 0 31.4 8.7 39.7 21.8l42.7-27.2C333.2 18.1 302.7 0 268.1 0c-36.5 0-68.3 20.1-85.1 49.7C166.2 20.1 134.3 0 97.8 0 43.9 0 0 43.9 0 97.8s43.9 97.8 97.8 97.8c36.5 0 68.3-20.1 85.1-49.7 16.8 29.7 48.7 49.7 85.1 49.7 24.7 0 47.3-9.2 64.5-24.3l19.4 22.2h3v-87.8h-80l24.3 27.5zM97.8 145c-26 0-47.1-21.1-47.1-47.1s21.1-47.1 47.1-47.1 47.2 21 47.2 47S123.8 145 97.8 145"/></svg>