<svg xmlns="http://www.w3.org/2000/svg" width="759" height="124"><path fill="#FFF" fill-rule="nonzero" d="M210.134 36.12h9.969v33.146c0 7.646.484 16.486 13.395 16.486 12.91 0 13.395-8.84 13.395-16.486V36.12h9.969v36.414c0 14.583-9.328 21.832-23.347 21.832-14.018 0-23.346-7.249-23.346-21.832V36.121h-.035Zm55.398 0h9.969v25.897l25.336-25.896h12.27l-22.706 22.696L314.717 93h-12.426l-18.656-27.16-8.134 8.044V93h-9.969V36.12ZM387.94 93h-6.368l-1.523-6.695c-5.33 6.055-10.194 8.044-17.134 8.044-16.977 0-27.257-13.458-27.257-29.789 0-16.174 10.28-29.789 27.257-29.789 12.357 0 22.88 6.608 24.385 19.444h-9.726c-1.039-7.404-7.407-11.313-14.659-11.313-12.2 0-17.289 10.76-17.289 21.676 0 10.915 5.106 21.675 17.29 21.675 10.28.243 15.696-5.968 15.939-15.62H363.71v-7.578h24.23V93Zm25.939-42.388c13.143 0 20.787 9.184 20.787 21.713 0 12.685-7.644 21.783-20.787 21.783-13.143 0-20.787-9.098-20.787-21.783 0-12.529 7.644-21.713 20.787-21.713Zm78.965 0c13.029 0 21.01 11.732 19.5 24.105H482c0 6.463 3.522 12.217 11.104 12.217 5.36 0 8.466-2.323 10.062-6.863h8.623c-1.926 9.011-9.75 14.037-18.703 14.037-13.029 0-20.211-8.942-20.211-21.714 0-11.731 7.668-21.782 19.969-21.782Zm-49.021 1.199 10.436 31.623h.155l10.038-31.623h9.397L459.104 93h-10.193l-14.97-41.19h9.882Zm-29.824 6.01c-8.175 0-11.775 7.403-11.775 14.496 0 7.16 3.6 14.582 11.775 14.582s11.775-7.421 11.775-14.582c0-7.093-3.6-14.496-11.775-14.496Zm78.814 0c-6.283 0-10.565 4.73-10.806 10.814h21.147c-.397-5.69-4.126-10.814-10.34-10.814Zm23.818-6.01h8.532v7.975h.156c1.038-4.377 6.541-9.082 12.028-9.082 2.146 0 2.544.155 3.426.242v8.77c-1.28-.242-2.63-.397-3.911-.397-6.144 0-11.163 4.93-11.163 14.098v19.6h-9.085V51.811h.017Zm28.053 0h8.602v6.055l.156.155c2.786-4.55 7.407-7.335 12.824-7.335 8.999 0 14.589 4.706 14.589 14.013v28.284h-9.086v-25.88c-.242-6.452-2.63-9.237-8.047-9.237-6.058 0-9.969 4.774-9.969 10.829V93h-9.086V51.81h.017Zm42.886 0h8.601v5.743h.242c2.787-4.065 6.058-6.85 12.669-6.85 5.018 0 9.726 2.145 11.56 6.85 3.115-4.22 6.854-6.85 12.91-6.85 8.689 0 13.794 3.91 13.794 13.856V93h-9.086V68.937c0-6.608-.398-11.071-7.493-11.071-6.144 0-8.775 3.978-8.775 10.984v24.133h-9.086V66.55c0-5.744-1.748-8.684-7.251-8.684-4.707 0-9 3.91-9 10.673V93h-9.085V51.81Zm84.305-1.2c13.029 0 21.01 11.733 19.5 24.106h-30.343c0 6.463 3.521 12.217 11.103 12.217 5.36 0 8.466-2.323 10.062-6.863h8.623c-1.926 9.011-9.75 14.037-18.703 14.037-13.029 0-20.211-8.942-20.211-21.714 0-11.731 7.668-21.782 19.969-21.782Zm-.03 7.21c-6.284 0-10.566 4.73-10.807 10.814h21.147c-.397-5.69-4.126-10.814-10.34-10.814Zm23.82-6.01h8.602v6.055l.156.155c2.786-4.55 7.407-7.335 12.824-7.335 8.999 0 14.589 4.706 14.589 14.013v28.284h-9.086v-25.88c-.242-6.452-2.63-9.237-8.047-9.237-6.058 0-9.969 4.774-9.969 10.829V93h-9.086V51.81h.018Zm38.611 0h6.854V39.459h9.085v12.352h8.204v6.764h-8.204v21.987c0 3.737.312 5.657 4.379 5.657 1.28 0 2.544 0 3.825-.312v7.007c-1.99.242-3.912.484-5.902.484-9.57 0-11.163-3.668-11.405-10.518V58.575h-6.853V51.81h.017ZM0 .934h7.2v121.751H0ZM112.82 115.35c-.623 5.761-3.253 8.65-5.884 8.65-2.63 0-5.26-2.889-5.884-8.65 1.125.122 1.713.9 2.32 1.678.536-.328 1.228-.657 1.886-.657.363 0 .692.087.986.329-2.077.83-1.333 3.961.692 3.979 2.025-.018 2.77-3.149.693-3.98.294-.241.64-.328.986-.328.658 0 1.35.329 1.886.657.589-.795 1.177-1.556 2.32-1.678Zm-.951 1.263a8.897 8.897 0 0 0-.762.9l-.433.553-.588-.363a4.214 4.214 0 0 0-.727-.38c.26.519.346 1.141.225 1.799-.26 1.366-1.35 2.335-2.648 2.335s-2.388-.969-2.648-2.335a2.877 2.877 0 0 1 .225-1.8 4.951 4.951 0 0 0-.726.381l-.589.363-.433-.553c-.276-.38-.519-.675-.761-.9.813 4.567 2.994 6.626 4.932 6.626 1.939 0 4.12-2.076 4.933-6.626Zm-17.514 4.62c-5.175-1.039-.572-7.163 5.745-4.654.554 2.439 1.056 4.74 3.115 6.556-4.084.19-8.03-.086-11.837-1.695-1.887-1.142-1.887-5.26-3.929-7.456 2.337-.467 1.246 7.49 6.906 7.248Zm25.042-.087c5.66.26 4.569-7.716 6.905-7.249-2.042 2.215-2.042 6.314-3.928 7.456-3.808 1.626-7.771 1.886-11.838 1.696 2.06-1.834 2.561-4.118 3.115-6.557 6.334-2.49 10.886 3.633 5.746 4.654Zm1.246-96.08c1.471 2.318.813 4.204-.363 6.609 3.547-3.564 6.005 2.404 1.851 3.857.866-1.92-.934-3.096-1.869-1.262-1.332 4.445 6.057 6.072 7.702.847-1.402-.242-2.631.329-3.323 1.332a2.465 2.465 0 0 0-.277-.086l1.782-5.9.063.021c.093.03.259.084.284.084-.156 1.193.657 2.542 2.076 3.148.623-1.886.173-3.512-1.16-4.48l.087-.346 5.313 1.695-.086.277c-.06.009-.119.019-.177.03l-.116.024c-1.283.292-2.278 1.409-4.951 10.585.242.467 1.09 2.18 1.298 2.612-.415.26-2.025 1.297-2.475 1.574-.277.986-.571 2.059-.865 3.183 1.523.796 2.942 1.816 3.53 2.249 1.194.017 2.354.173 3.358 1.003.519-.761 1.28-.398 2.007-.553.035-1.696 1.125-2.474 2.717-2.768-.26-1.557-.051-3.547-1.02-4.913 2.232-.156 2.18-.761 3.288-2.491-1.818-1.228-.416-1.678 1.038-1.73 1.004.242 1.16.83 2.232-.052-.2-.917-1.162-1.162-2.178-1.28l-.277-.03-.358-.033-.24-.021c-1.465-.136-2.594-.342-1.065-2.407.225-.38.588-.52 1.003-.52 4.638-.535 7.373-3.96 12.236-2.87.38.622.19.847-.935.985.589.796 2.475-.052 1.68-1.055-.762-1.436-.59-2.958-.59-4.515 1.195.19 1.662 1.937 2.337 2.837.398.848.208 1.972.606 2.837 3.911 4.948 3.27 11.833.329 17.074.57-.26.83-.017 1.09-.605.359.728 1.034 1.783 1.524 2.523l.175.261c.245.366.412.606.412.606l-.04.02c-.49.235-5.275 2.574-5.636 4.478.57 1.73 1.367 3.287 2.284 4.74.156-.346 2.077-.467 2.389-.57.726-1.8 3.15.968 4.015 1.314.657.432.432 1.28.017 1.816l.883 2.388.328.034c1.427.151.46 3.282.528 4.306 7.076 14.008 15.047 6.245 10.687.642-1.921-2.163-5.728-.242-5.019 2.525-2.734-1.712-1.592-5.31 2.094-5.293-3.444-1.453-6.057-.727-7.615-4.913 2.008 1.28 4.396.882 6.456 2.024-16.788-17.386-1.506-14.756-2.717-22.818 1.176.468 1.626 1.367 1.436 2.837 3.046-1.072 7.234-1.124 8.74-4.428.138 5.518-2.267 5.466-6.715 6.072 1.107.173 4.326.71 6.438-.052-2.44 5.017-4.396 1.99-7.961 1.713 3.288.605 4.967 4.1 1.488 5.968 1.367-5.276-5.348-6.435-6.092-1.367.582 3.81 3.088 6.622 5.718 9.38l.88.919c1.463 1.532 2.904 3.08 4.011 4.803.502-1.245 1.056-2.352 2.371-2.75-1.056 2.133-.559 4.638-.235 7.018l.058.445c.377 3.027.292 5.8-3.89 7.276.589 1.556.64 3.615-.848 4.74 1.021-4.827-6.403-4.706-8.532-8.477-.138.68-.446 1.326-.775 1.967l-.248.48c-.534 1.039-1.024 2.08-.829 3.244.364 4.74 5.227 4.515 3.963 6.609-5.52 10.552 1.54 10.517-3.772 15.275.155-1.557-.745-2.976.328-4.446.101.23.202.437.343.73l.09.185.01-.227c.021-.672-.01-1.228-.321-1.882-.727 1.194-.381 1.8-1.904 2.353.07 1.194-1.142 2.024-.692 3.27.605 2.715-3.029 3.234-4.95 3.736.64-1.66 1.54-2.958 2.475-4.377-2.302.692-1.887 4.083-4.327 4.464l.186-.038c.506.062 1.012.118 1.519.168.63.064 1.862.084 3.19.086h.555l.54-.002c1.706-.008 3.34-.042 3.877-.102-3.545 2.807-3.303 8.454-8.473 8.454-.225 0-.467-.017-.71-.035-7.02-.762-14.024-2.737-20.941-3.845-1.141-.139-7.004-1.611-10.307-1.611-2.386 0-3.44.762-.415 3.36-.812-.086-4.513-2.079-3.406-4.175 2.576-5.508 4.773-6.911 7.972-6.911 1.539 0 3.32.329 5.499.675 6.996 1.107 13.933 3.045 20.934 3.917.423-1.374 1.338-2.452 1.901-3.765.814-1.522 2.96-1.66 3.565-3.46.121-1.141-.12-1.625.796-2.542 2.164-2.509 2.752-5.657 1.99-8.84-.76-1.747-2.665-2.733-3.98-4.1 1.16 1.886.52 5.328-.934 6.574.484-2.25-.346-3.893-2.129-6.003 0 0-.052-.052-.104-.121l.277-.588c.398.242.935.086 1.246-.364.294-.796 2.942-3.338 1.956-4.238l.779-1.626c.467.329 1.107.156 1.384-.45.173-.917 2.665-4.03 1.038-4.636l.797-2.214c.72.23 1.24-.38 1.249-1.107l-.001-.037-.285-.36a12.403 12.403 0 0 0-.635-.728l-.002-.045c-.065.254.034 1.274-.292 1.36-.208-.294-.658-.398-.952-.156a.382.382 0 0 1-.104-.311l.15-1.994-.297-.246-.414-.325a6.108 6.108 0 0 1-.2-.169l.007.092c.036.92-.779 3.656.391 3.974l-.64 1.782c-.433-.225-.97.017-1.212.536-.156.847-2.475 3.84-1.194 4.532l-.692 1.419c-.433-.433-1.09-.398-1.489.19-.242.519-2.405 3.114-2.18 3.737-3.444-5.536 5.711-9.186.969-12.352.588 1.938 2.008 1.903-.087 3.754-2.509-8.148-11.63-5.467-15.731-14.618 1.194.035 2.163.156 3.305.139 1.645-.139.26-2.613 2.527-1.938-1.545-1.098-1.915-.618-2.132.072l-.046.156-.022.08-.048.177c-.161.592-.353 1.146-1.144.899-.969-.25-1.977-.298-2.994-.316l-1.018-.013c-.68-.011-1.359-.034-2.028-.12-.415-.122-3.115 1.227-3.08 1.643.025.531-.137 1.191-.293 1.864l-.092.405c-.221 1.01-.344 1.998.28 2.574 1.991 1.038 2.199 2.388 2.337 4.533-.882-.9-2.007-1.211-2.111-2.526.346.104.57.173.83.26-.207-.502-.605-.796-1.436-1.056.537 1.834-1.09 1.938.017 3.477 2.89-.432 3.064 2.993 3.617 5.07-1.782-1.022-3.409-1.437-4.153-3.478-.286 1.506.558 2.128 1.46 2.625l.302.162c.852.452 1.65.866 1.492 1.884-1.23-1.09-4.258-1.678-4.258-3.443-.121-.969-.675-3.667-1.454-4.082-.225-.623-.57-1.419-.155-2.094.605-1.285.831-2.667 1.037-4.051l.124-.83c.043-.277.087-.553.137-.827.086-1.678.623-4.135 2.665-4.239 2.561 0 4.586-1.712 6.992-2.283.519-2.647 3.495-3.287 5.815-2.664-.554-1.055-2.77-.536-3.842-.45-2.648.52-1.697 2.491-3.877 3.027-.692-.916-.104-1.989-.415-2.923-.762-.208-.416 2.232-.537 2.768.087.934-.848.917-1.506 1.28a21.483 21.483 0 0 0-.45-.744.87.87 0 0 0 .883-.657c.035-.329.935-3.114.727-3.39l.119.097c1.055.803 2.791.357 3.308-.86-.381-.051-.78-.086-1.16-.103-.329.346-.952.45-1.384.208.26-.398-.174-1.021-.64-.917-.105-.623.38-1.211.986-1.315v-1.038c-1.385.104-2.389 1.592-1.904 2.924l-.45.294c-2.336-.952-2.025.9-2.544 2.474-1.35-1.246-2.752-2.215-4.032-3.391l-.458-.308c-15.194-10.02-41.108-5.652-49.195 10.6-.64-.778-1.28-1.418-1.367-2.456-.19-2.525-3.046-4.601-5.469-3.546 2.683-.156 4.915 1.972 4.69 4.654 1.482 1.234 2.556 2.899 3.869 4.296-.322-1.038.525-2.707 1.548-3.224l.796.588-.017.018c-1.004.138-2.319 2.214-.657 2.11.951-.225 2.18-1.557 3.132-.813.917.692.52 1.99-.104 2.889a1.978 1.978 0 0 0-.607-.044l-.414.027c.692-.364 1.056-1.886-.086-1.678-.416.103-1.731 1.003-2.25.986a2.032 2.032 0 0 1-.545-.084 8.09 8.09 0 0 0 1.289.949c.258.05.527.128.799.213l.272.086.137.043.271.085c1.172.356 2.265.524 2.605-1.154 1.956-.502 3.894 1.073 3.67 3.027-.433-.501-.866-.916-1.541-.951-.104 0-.19-.225-.346-.432l-.252.178c-.634.444-1.317.85-2.31.513.745.658 1.056.71 1.8.45 2.347-.675 3.063 1.515 2.534 3.743l-.042.165-.09-.235c-.298-.76-.589-1.235-1.151-1.804l-.178-.173c-1.35.692-2.561.207-3.773-.623.435 1.044 1.26 1.193 2.069 1.305l.344.048c.738.11 1.41.296 1.69 1.242.276 1.124.207 2.145-.676 3.044l-.019.004c.003.017.009.024.02.014h19.33V54.008h-20.04v10.206h-.623l.034-10.812h3.623l-.37-1.245 4.431-2.647 1.437 1.09c-.606-.035-1.956.502-2.596.882 0 0 .497.807 1.138 1.82l.064.1h34.068v12.836c-.19.139-.225.121-.502.554-.052-.208-.138-.779-.12-.848V54.008h-19.92v21.174h20.283c0-1.54.069-1.972 0-3.131.398.484.519.553.64.709-.029.066-.042.28-.045.61v.311c.005 1.068.07 2.921.076 4.91v.632c-.01 2.524-.132 5.155-.602 6.606l-.057.164.253-.637a35.697 35.697 0 0 0 1.967-7.683c.312.052.45.173.813.346-1.715 12.227-7.075 15.645-11.754 18.623l-.474.302c-3.059 1.955-5.757 3.842-6.843 8.079 3.411 1.923 6.952.05 10.087-1.905l.456-.287c.679-.429 1.337-.853 1.97-1.233 12.46-8.494 17.254-26.105 10.072-39.512 1.575-1.228 2.665 4.394 3.132 5.398 3.011 11.244-.138 24.392-9.172 32.038-2.112 2.128-4.621 3.754-7.217 5.224-.312.19-.502.415-.623.779-.588 1.47-2.18 2.162-3.461 2.94-.918.277-1.818 1.384-2.752.97-.467-.572-1.61-.554-1.783.397-.103.502.139.882.502 1.055a1.598 1.598 0 0 1-1.16 1.713l-1.21.329.051 2.421-.865.554-.017-3.235-.037-.011c-.434-.136-4.615-1.448-6.73-2.169v5.173a19.96 19.96 0 0 0-.187-.13l-.2-.135a54.91 54.91 0 0 0-.252-.168l-.135-.09c-.078-.05-.126-.083-.126-.083v-4.791s-8.515-4.014-10.903-7.232c.052-.069.034-.051.104-.12 6.213 3.788 12.858 8.2 20.248 8.891.208-.311.104-.536-.07-.778-1.314-2.076 1.558-4.118 3.41-2.993 1.125.432 3.67-1.263 4.379-2.162-.07-.07-.052-.052-.104-.122-6.819 3.702-17.635-4.74-23.554-8.251 1.922.024 3.577 1.043 5.227 2.144l.708.474c1.656 1.106 3.345 2.163 5.331 2.26l.002-.055v-.092c.002-.13.003-.346.004-.636v-.266l.003-.813v-.38l.003-1.077v-.476l.002-.759v-.533l.002-.837v-.58l.002-.9v-.775l.002-.793v-.972l.001-.658v-.331l.001-.667.001-.863.002-2.164.001-.86.001-1.272.001-.833v-.41l.001-.807v-.396l.001-.774v-.377l.001-1.088v-.347l.001-.987v-.31l.001-1.134v-.255l.001-1.081v-.175l.001-.873H87.259c.086 4.377.813 13.943 5.192 17.3l.311.864-.11.034c-.545.187-1.045.643-1.5.156-5.59-5.691-8.6-13.562-7.233-21.52.432.416.848.727.848.727-.813 5.536.496 12.846 4.64 17.112l.272.27-.111-.128c-2.113-2.65-3.392-15.5-2.95-17.064l.624.018c0 .025-.019.357-.022.922v.33c0 .117.002.242.004.374h.537c0 .01.005.003.014-.014l-.014-.004c0-.674.277-1.297-.398-1.816-.121-.104-.139-.346-.208-.52-1.506.97-1.99.433-2.648-.57-.692-.761-1.54-1.782-2.613-1.955.26.934.433 1.869 1.142 2.716-3.463-.413-3.883-1.029-3.983-1.877l-.016-.161c-.055-.685-.02-1.512-1.193-2.494-.156 1.228.035 2.37.243 3.563-3.17-1.078-3.317-1.935-3.162-2.856l.031-.174.035-.175.034-.178c.107-.597.132-1.239-.59-1.997-.26.952-.502 1.869-.762 2.82-.934-.155-1.315-1.384-1.938-2.024-.883-.986.087-1.833.658-2.681-.796-.26-1.817-.45-1.87-1.47-.224-1.834-2.353-.174-3.08.64.318-.111.618-.216.91-.32l.874-.305.449-.154c.138 1.073.848 1.626 1.644 2.093-1.194 1.367-.502 1.557.19 2.89-1.108 1.452-3.184 1.28-4.655 1.4-1.506.087-8.117 3.754-5.244 5.173 1.817 0 .363 1.28.052 2.249-1.714-2.89-3.323-1.765-1.35-4.844-2.343 1.706-1.976 2.211-.993 3.2l.258.257c.327.33.696.719 1.046 1.214 1.021 1.505 1.281 3.356 2.216 4.878.519.813.484 1.401-.087 2.145-.45 2.993-2.63 5.76-2.18 8.84-1.887-.536-2.043-3.425-1.731-5.086-1.108 1.886-3.513 2.612-4.379 4.602-.934 2.577-.986 5.691.814 7.923.735 1.04 1.702.996 2.68.906l.367-.033c.671-.058 1.335-.075 1.92.286 1.367.968 2.024 2.283 1.8 4.03-.537-.865-1.09-1.73-1.818-2.473-1.332 1.245-2.648-.589-3.894-.64.654 1.057 1.453 1.26 2.26 1.373l.242.032c1.292.165 2.571.296 3.279 3.525-.502-.364-1.004-.744-1.575-1.177-.571 1.073-1.714.433-2.18-.328-.31-.198-.656-.316-1.008-.415l-.302-.082c-.856-.226-1.696-.441-2.088-1.504l-.064-.196-.07.163c-1.092 2.805 4.752 1.288 4.345 5.788-.537-.796-1.645-.934-1.8-1.869-.168.103-.302.256-.43.414l-.151.188c-.228.277-.472.507-.89.419-.589-.07-1.194-.242-1.402-.9-.139-.38-.329-.588-.71-.743-1.142-.675-1.194-2.301-1.47-3.478h-.174c-.086.416-.173.848-.26 1.315-1.99-.796-2.145-2.854-1.522-4.619-.693.485-2.025 2.63-2.354 3.685-2.69-3.003-2.027-3.968-.995-4.753l.146-.108.3-.215.174-.126c.722-.533 1.347-1.148.946-2.427a41.766 41.766 0 0 1-3.582 1.938c-.281-3.522.554-3.905 1.58-4.177l.188-.048c.761-.196 1.594-.43 2.143-1.865-1.298.346-2.561.675-3.929 1.021.485-2.924 1.333-4.1 4.43-3.944-.588-.796-.328-1.92.745-1.955 4.07-.507 3.576-3.082 2.807-5.93l-.106-.39-.107-.393-.106-.393c-.538-2.036-.921-4.086.35-5.522-.727.294-1.038.813-1.16 1.453-.692 5.5-8.064 4.342-9.05 9.428-1.004-1.263-.9-2.647.397-4.187-3.27-.397-6.316-3.338-5.416-6.798.188-.847.561-1.707.926-2.57l.167-.398c.768-1.859 1.356-3.723-.176-5.491 1.35-.139 1.955.865 2.544 1.868a68.516 68.516 0 0 1 2.666-2.672l1.094-1.048c2.004-1.921 3.979-3.87 5.533-6.175 5.452-7.335-6.507-10.086-5.105-2.093-2.215-1.073-2.7-4.152-.536-5.346-2.216.225-4.102-.294-4.466-2.768 1.8.675 3.704.692 5.625.917-4.096-1.121-6.507-.757-6.296-5.972l.014-.29.091.252c.932 2.371 3.241 3.031 5.599 3.576l.505.115.488.112c.891.206 1.763.428 2.541.754-.502-1.28.139-2.214 1.246-3.166-.577 1.936.53 3.306 1.759 4.76l.224.267c.188.222.376.447.56.678l.156.198c2.113 2.736 3.36 6.262-4.983 14.216 2.388-.346 4.447-1.315 6.75-1.557-1.589 3.081-3.764 3.3-5.916 3.396l-.403.018c-1.275.054-2.529.126-3.633.79 2.44-.554 4.517.208 6.957.156-1.839 2.295-3.324 2.313-4.928 2.204l-.358-.025c-1.083-.077-2.233-.14-3.592.45 3.86-.623 5.486 2.162 2.96 4.982.328-3.511-4.794-4.273-5.66-.726-1.869 4.843 5.261 6.902 7.927 3.373 3.5-5.025 7.536-9.602 11.649-14.132l1.765-1.94c1.179-1.293 2.359-2.587 3.529-3.891 1.298.917 2.907 1.436 4.863 1.574-.831-1.384-1.056-2.889-1.16-4.411 2.613-1.696 3.652 1.245 5.14-2.007.762-.052 1.454-.71 1.956-.121 1.02 1.228 1.8 2.578 2.007 4.325 1.125-.761 1.592-1.886 2.077-3.028 5.503.658 3.877-1.608 11.024-4.947-.277-1.02-.536-1.99-.779-2.89-.432-.276-2.059-1.314-2.474-1.573.225-.45 1.055-2.145 1.298-2.612-2.539-8.78-3.56-10.194-4.776-10.545l-.114-.03a3.403 3.403 0 0 0-.234-.046l-.12-.018-.087-.277 5.313-1.695.087.345c-1.333.97-1.765 2.595-1.16 4.481 1.42-.606 2.233-1.955 2.077-3.148.017-.018.346-.104.346-.104l1.783 5.899s-.243.086-.277.086c-.692-1.003-1.921-1.574-3.323-1.332 1.627 5.207 9.017 3.581 7.701-.847-.934-1.834-2.734-.658-1.869 1.262-4.136-1.453-1.696-7.421 1.852-3.857-1.177-2.405-1.834-4.29-.363-6.609 1.903 1.229 2.388 3.443 2.024 6.401 2.337-5.345 6.421.138 3.098 2.94.606-3.96-4.309-1.348-.986 1.852 3.167 2.249 7.06-.329 7.165-4.273-1.835.156-3.22 1.246-3.41 2.595l-.328.017-.225-6.73s.38-.016.415-.016c.294 1.366 1.782 2.525 3.652 2.56-.122-2.076-1.316-3.702-2.856-3.962v-.38h7.77v.38c-1.54.26-2.734 1.886-2.855 3.962 1.886-.035 3.375-1.194 3.652-2.56.034 0 .415.017.415.017l-.225 6.73s-.294-.018-.329-.018c-.19-1.35-1.592-2.44-3.41-2.595.122 3.944 3.999 6.505 7.166 4.273 3.305-3.2-1.592-5.813-.987-1.851-3.323-2.785.762-8.286 3.098-2.94-.38-2.96.121-5.173 2.025-6.402Zm-31.584 79.905.033.004c.86.192 8.446 7.04 4.743 9.683-.934.623-2.198 1.35-2.423 1.35-.034 0-.034-.017-.034-.035.017-.086 2.302-2.006 1.938-2.664-.277-.484-1.177-.675-2.388-.675-3.358 0-9.086 1.419-10.28 1.592-6.923 1.107-13.915 3.097-20.958 3.84-.242.018-.485.035-.71.035-3.195 0-4.325-2.136-5.553-4.432l-.232-.431c-.702-1.299-1.478-2.609-2.712-3.579a36.82 36.82 0 0 0 4.136.225c11.491 0 22.948-4.896 34.44-4.913Zm65.868 6.68-.463.94v.017a2.557 2.557 0 0 1 1.37-.12c-.07.283-.224.964-.386 1.686l-.088.395c-.22.989-.425 1.932-.415 1.923l1.175.205c-.024-.138.101-.963.248-1.834l.074-.436c.112-.65.223-1.266.28-1.576l.028-.154.01-.054c.463.085 1.318.376 1.55.598l-.215-1.043-3.168-.548Zm-95.099-.227c.129.184.388 1.208.622 2.299l.105.505c.223 1.093.396 2.134.364 2.35 1.453-.259 3.322-.587 3.945-2.075 1.108-3.097-2.509-4.152-5.036-3.08Zm93.472-.087c.087 1.384-.26 3.564-.761 4.844l1.142.173c-.156-.83.242-2.595.363-3.477.087-.52.225-.97.398-1.367l-1.142-.173Zm-2.873-.64c-2.353.692-2.353 5.622.571 5.069 2.389-.675 2.371-5.692-.57-5.069Zm-87.449 1.315c1.575 1.003 1.004 3.39-.9 3.667-.294-.986-.675-2.906-.813-3.927.675-.104 1.246-.017 1.713.26Zm3.755-2.042-1.47.277c.674 1.332 1.176 3.702 1.107 5.19l1.471-.277c-.675-1.332-1.177-3.702-1.108-5.19Zm78.935-.017c.035.433-.986 4.446-1.229 4.827l1.316.207c-.07-.553.103-1.332.276-1.937.295.744 1.264 2.11 1.42 2.197l.778.12v-.017c-.502-1.055-.675-1.366-.969-2.335.675-.208 1.09-.588 1.229-1.142.346-1.54-1.679-1.747-2.821-1.92Zm5.469 1.401c1.454.589.917 4.152-.848 3.737-1.437-.57-.883-4.17.848-3.737Zm-80.094-2.231-3.254.623c.26.38 1.246 4.41 1.212 5.19l3.046-.589.138-1.297-.017-.018c-.571.38-1.281.675-2.146.865l-.364-1.591c.485-.087 1.54-.346 1.887-.294l-.277-.744-1.748.38-.346-1.522c.588-.104 1.107-.104 1.54.017l.329-1.02Zm35.218 4.584c.208-1.02 1.818-.692 1.575.329-.19 1.02-1.8.692-1.575-.329Zm35.305-4.66-.173.007-.952 4.913c.727.138 1.697.415 2.389.173 2.968-1.117 1.855-4.997-1.095-5.092l-.169-.001Zm-6.005-.962-1.004 4.774.866.121c.116-.198.55-3.003.586-3.236l.002-.015.007.013.209.422.15.297c.575 1.14 1.655 3.213 1.918 3.263l1.056-4.809-.744-.207c-.021.099-.118.594-.224 1.146l-.072.372-.258 1.336s-1.523-3.235-1.523-3.356l-.969-.121Zm-58.772-.07-.935.208c.311 1.211 1.263 4.377-.104 4.74-2.267.415-2.215-2.871-2.717-4.22l-1.004.19c.33 1.643.848 4.826 3.046 4.774 3.202.208 2.112-3.615 1.714-5.691Zm65.522 1.8c2.197.45 1.505 4.22-.745 3.736.122-.968.502-2.785.745-3.736Zm-59.586-2.924-3.22.606c.26.38 1.333 4.705 1.281 5.155l2.977-.571.242-1.038-.017-.017c-.554.398-1.263.692-2.129.882l-.38-1.592c.484-.086 1.54-.363 1.886-.311l-.294-.744-1.73.398-.364-1.522c.588-.121 1.107-.121 1.54 0l.208-1.246Zm47.69 2.28c-1.207 3.142 2.847 5.085 3.882 1.545 1.207-3.158-2.864-4.963-3.882-1.544Zm16.222 1.509c1.575.242.935 2.18-.519 1.903l.52-1.903Zm-13.921-2.589c1.515.64.86 4.229-.982 3.757-1.498-.623-.81-4.246.982-3.757Zm-7.798-2.22-.051.31-.046.27a92.778 92.778 0 0 1-.297 1.664l-.092.477c-.203 1.031-.428 2.02-.587 2.278l1.142.156c.017-.813.484-3.304.484-3.304l1.16 3.477 1.99-3.08s-.075.81-.176 1.64l-.048.382c-.083.63-.177 1.2-.26 1.352l1.16.225c-.035-.416.57-4.723.743-4.879h.018l-1.385-.26c-.104.14-1.661 2.751-1.661 2.751s-.883-2.992-.918-3.235l-1.176-.224Zm-36.465.31-4.344.554.035.97c.83-.381 1.177-.381 1.8-.485l.882 4.342 1.004-.173-.865-4.36s1.384-.172 1.782-.017l-.294-.83Zm19.262 1.385c-.242 1.28-2.232.865-1.956-.398.243-1.263 2.233-.865 1.956.398Zm45.776-21.59c.311.45.57.883.882 1.333l-.588 1.314c.225.139.415.329.484.606.121.277.104.588-.017.865l-1.454 3.217a1.095 1.095 0 0 1-.623.589c-.12.051-.26.069-.398.069-.121 0-.242-.035-.363-.07l-.779 1.713c.45.139.796.571.796 1.073v3.529c0 .622-.502 1.124-1.125 1.124h-.017v.485a3.046 3.046 0 0 1 2.353 2.975 3.057 3.057 0 0 1-3.063 3.062 3.06 3.06 0 0 1-.71-6.037v-.502a1.132 1.132 0 0 1-.917-1.107v-3.53c0-.622.502-1.124 1.125-1.124h.035l1.004-2.231c-.502-.294-.727-.917-.485-1.453l1.454-3.218a1.115 1.115 0 0 1 1.402-.606l1.004-2.075ZM96.258 94.73c1.039.588 5.486 1.955 4.586 3.944-2.56-1.764-5.434-2.906-8.012-1.315-2.423-2.594-5.175.467-2.06 2.37-1.384 3.356 2.198 6.003 4.327 7.076-1.177 1.799-5.521-2.024-6.265-3.443-.744-.813-.71-5.172-.917-6.176a1.751 1.751 0 0 1 1.523-1.903c1.384-.051 5.503-.986 6.818-.553Zm4.638 9.463c-.242 1.28-2.232.864-1.955-.398.242-1.28 2.232-.865 1.955.398Zm19.626-7.37c.086.484 2.561 4.532 2.977 4.878l-3.185 1.834-.086-1.193c.519-.035 1.073-.208 1.661-.537l-.9-1.47-1.765 1.02-.554-.674c.398-.07 1.454-.71 1.938-.969l-.934-1.54c-.866.502-1.523 1.038-2.008 1.644h-.017l-.139-1.246 3.012-1.747Zm-26.894 5.657c-1.316 0-2.389-1.055-2.406-2.353.658.467 1.592 1.453 2.492 1.263 2.388-.64 1.056-2.854-.484-3.685 3.322-.57 3.772 4.792.398 4.775Zm34.578-26.693h-20.3v26.105c12.858-5.415 21.961-10.605 20.3-26.105Zm-52.352-4.169c.398.208.64.312.83.415-.692 10.622 2.268 20.189 10.177 27.558.467.623 1.679 1.107.779 1.937-8.757-7.265-13.119-18.63-11.786-29.91Zm15.524 25.638c.45.57 3.496 1.954 2.63 3.01-.26.328-.778.38-1.142.086-.415-.553-3.41-1.937-2.544-2.94.242-.312.692-.381 1.056-.156Zm33.609-3.46.848 1.003-.035.017c-1.107-.38-3.253 1.332-1.557 1.817 4.032-1.626 4.828 1.92 1.263 3.494l-.64-.76.017-.018c1.004.086 2.752-1.609 1.125-1.903-.987-.017-2.492 1.003-3.236.052-1.073-1.453.951-3.149 2.215-3.702ZM62.632 76.6a23.15 23.15 0 0 0 3.195.23h.8c1.469.004 2.326.145 5.766 2.123.796.087.761.865.588 1.453-.252.315-.21.62-.143.923l.052.227.022.113c.128.58.214 1.178.291 1.78l.135 1.085c.199 1.566.46 3.112 1.34 4.418-3.015-.973-2.992-2.262-2.92-3.765l.013-.275c.035-.818.032-1.694-.466-2.615l-.123-.211.077.3c1.01 4.273-2.719 6.303-.926 7.621 2.25 1.557 5.815 3.097 7.875.571 1.176 2.007 2.319 3.944 3.46 5.9-.743.345-1.591.19-2.353.051-.813-.727-1.748-.07-2.7-.398.814 1.16 1.143 2.612 2.268 3.737-3.15.294-4.933 0-5.712-3.304-.674-.156-1.332-.312-2.007-.467.104 1.193.086 2.49.813 3.684-4.178-1.699-4.08-2.54-3.997-3.424l.012-.14c.046-.585-.012-1.209-1.397-2.127-.502 1.003-.52 2.041-.536 3.235-2.614-1.54-3.929-2.024-2.216-5.103-.83-.295-1.592-1.523-.64-2.094 1.938-.657 2.129-3.027 1.748-4.722.017-1.073-1.679-1.038-1.28-2.145.18-.907-.161-1.783-.55-2.656l-.197-.437c-.523-1.164-.994-2.331-.292-3.568Zm60.555 13.736c.398-.017.779.432.71.83a1.268 1.268 0 0 0-.137.336l-.041.144c-.094.33-.197.587-.67.23-.399.242-.554.31-.866-.433-.443.014-.764.346-1.07.696l-.182.21c-.395.45-.8.829-1.448.478-2.509-1.107-3.634 2.024-5.572 2.872.086 1.522-1.489 2.197-2.579 2.94-.329.277-.744-.017-1.038.346-.052.07-.294.018-.468.018l.052-.415c-.225-.087-.38.207-.588.26-.658 0-.242-.641.07-.918-.053-.311-.209-.398.155-.744.9.467 2.37-.242 2.44-1.28 2.129-.173 1.817-2.18 2.77-3.183 1.868-.83 3.824-1.418 5.693-2.231.208.415-.415.57-.64.847 1.246.415.865-1.332 3.409-1.003ZM100.741 79.8l3.15 4.134s.03-.199.07-.417l.033-.188c.277.034.848.12.848.12s-.442 2.695-.918 5.583l-.106.644-.047.28-.092.56c-.43 2.602-.828 5.013-.896 5.39.813.76 2.37-12.439 2.596-12.456l.83-.087-.778 11.452-2.856 2.11-.012-.004-.09-.04-1.734-.744-.23-.099-.15-.064c-.432-.31-.155-1.21.035-1.712.139.052.26.086.364.12 1.177.364 1.869-1.193 1.61-2.179-.468-.882-.727-.986-.381-2.058-.398-.571-7.044-9.307-7.044-9.307l.121-.71 7.13 9.325.243-.796-6.473-8.529.779-.017 5.85 7.94.276-1.003-5.33-7.006h.623l4.915 6.453.225-.762-4.379-5.726.658.052c.329.415 3.582 4.93 3.894 5.138l.225-.778-3.375-4.429.416-.19Zm17.842 13.147c.174.52.52.882.918 1.211-.675 1.297-1.921 2.162-3.323 2.612-.087-.501-.485-.225-.692.035-.104-.035-.208-.07-.295-.104-.069-.398.052-.692.381-.865-.052-.173-.086-.311-.156-.57.046-.003.092-.004.138-.005l.276-.004c.642-.008 1.25-.035 1.507-.718-.173-.243-.328-.45-.501-.675.415-.692 1.073-.744 1.747-.917Zm-32.276-4.117.987 1.367c-.71.155-1.558.76-2.198 1.245l1.505 2.093c.64-.467 1.489-1.072 1.87-1.695l1.003 1.384c-1.54.588-3.703 2.145-4.742 3.425l-.986-1.367c.71-.173 1.54-.76 2.18-1.245l-1.505-2.093c-.658.45-1.489 1.055-1.87 1.678l-.986-1.367c1.54-.588 3.704-2.145 4.742-3.425Zm66.318-12.905c.52.398.917 1.21.675 1.764-1.056 1.748-1.367 3.754-1.869 5.709-5.642 3.58-.052 5.691-2.925 7.04-8.68 1.008-10.087 2.168-10.77 3.284l-.064.107-.03.054-.07.125-.033.062-.068.124-.042.075-.088.15c-.442.719-1.17 1.401-4.082 1.988.848-.848 1.8-3.477 2.96-3.097-.087.26-.173.52-.312.917.64-.432.814-1.003 1.212-1.487-.623-.156-1.23.397-1.696-.139 1-2.504 3.198-2.872 5.462-3.217l.486-.075c1.378-.214 2.75-.475 3.864-1.258-1.444-2.736-1.682-2.768-1.521-6.532l.016-.352-.062.2c-.87 2.912-.114 4.391-4.023 5.49 1.095-1.175 1.554-2.652 1.972-4.15l.192-.692c.226-.806.466-1.605.813-2.354-.173-.951.035-1.366 1.021-1.522 5.348-3.287 6.507-.467 8.982-2.214Zm-43.11 16.088c.761-.467.934.26.536.83.33.917 1.039 1.73 1.506 2.612-1.229 1.056-2.007-.968-2.527-1.799-.173-.38-.657-.657-.467-1.141.07-.035.156-.052.242-.087 0-.034.018-.086 0-.104-.26-.19-.207-.432-.103-.674.346-.087.623-.018.813.363Zm3.98-1.211c1.004.07 1.23.467.381 1.142.45 1.557-1.35 5.207-2.544 2.335-.329-.848-.208-1.712.035-2.577-.45-.122-.744-.675-.225-.917.242-.018.519.052.71-.173.536-.64 1.297-.571 1.643.19Zm15.42-2.612 4.57 3.062-.537 1.072c-.121-.052-4.154.416-4.154.416s2.51 1.626 2.735 1.781l-.537.761-4.569-3.13c.225-.381 5.14-1.021 5.14-1.021l-.289-.173-.245-.147c-.865-.519-2.489-1.505-2.615-1.67l.501-.951ZM97.487 77.863c2.907-.622 10.99-2.231 8.619 3.166-.952 0-1.073-.035-1.506-.484.373-2.22-1.944-2.005-4.48-1.549l-.372.069-.187.035-.648.122c-1.651.311-3.23.577-4.057.198-3.79 5.501-.294 12.698 6.56 12.473 2.094 3.131-3.133 1.522-4.466.951.19 2.353-3.374 1.298-1.384-1.107-.813-.467-1.696-.969-2.492-1.436-1.229 2.267-3.34-1.124-.692-1.505-.07-.795-.33-1.643-.9-2.18-1.973 1.523-2.666-2.266-.035-1.695.173-.674.138-1.366.035-2.076-2.406 1.021-2.008-2.906.432-1.643.78-.882 1.8-4.307-.329-3.58.97.466.658 1.971-.432 1.937-1.229-.052-1.835-1.834-.917-2.647 2.284-2.059 4.672 1.712 7.251.951Zm26.271 9.532c.848.606.796 1.574.035 2.266-.398.485-.796.225-1.385.208 3.288-1.47-.138-3.166-.034-.761-.64.553-1.42.795-2.285 1.072.173-.415.606-.588.571-1.02-1.263.536-2.405 1.73-3.876 2.006-1.298.45-1.766-.9-2.614-1.522.71-.225 1.852-.311 2.216.484.77.745 2.087-.19 3.494-1.177l.404-.282c1.218-.842 2.471-1.608 3.474-1.274Zm-29.144-5.674 6.819 9.065-.467.225s-6.04-8.01-6.542-8.667c.052-.19.19-.623.19-.623Zm-.277 1.834 5.573 7.386s-.433-.086-.658-.12a376.076 376.076 0 0 0-4.655-6.055c-.364-.45-.26-1.211-.26-1.211Zm30.408-1.748c2.492 1.35-.952 2.976-2.44 3.01.33.331.753.248 1.185.116l.324-.102c.431-.134.85-.225 1.173.09.329.554 1.28 1.315.848 1.99-.208.086-.225.225-.225.432-.017.502-.83.502-.814.017-.155-.536-.588-.155-.26-1.02-.882-1.125-2.37.57-3.374-.536-.9-.952-2.267.086-3.323.294-.352.103-.68.367-1.008.65l-.246.214c-.574.498-1.161.95-1.878.606l-.346.719-.173.37c-.745.485-4.76 2.336-4.777.745-.83.069-.848-.727-.035-.796-.034-1.557 3.6 2.145 5.677-3.304 3.115-.882 6.628-.64 9.605-1.938 1.177-1.418-1.402-1.4-1.696.018-.675.138-1.367.276-2.094.432-.052-.311.346-.398.277-.71-.443.139-.915.31-1.396.473l-.322.105c-1.774.568-3.604.863-4.46-1.304 1.386-.12 1.665.255 1.89.59l.058.085c.3.436.668.713 3.676-.484 1.35-.312 2.752-1.004 4.154-.762Zm-42.379 1.879.237.007a2.881 2.881 0 0 1 1.472.502 2.5 2.5 0 0 1 .934 1.176c.208.502.277 1.003.173 1.505a3.023 3.023 0 0 1-.692 1.367 3.514 3.514 0 0 1-1.28.9 3.34 3.34 0 0 1-1.593.276c-.554-.052-1.056-.208-1.488-.502a2.498 2.498 0 0 1-.935-1.141c-.311-.71-.311-1.436.017-2.18.33-.744.9-1.28 1.731-1.609a3.533 3.533 0 0 1 1.187-.293l.237-.008Zm37.827 2.083c.242.398.502.778.744 1.176-.657.986-2.492 2.076-3.72 2.007 0-.104-.018-.208-.018-.329-.225-.069-.415.173-.623-.052-.208-.173-.139-.553.156-.553.069 0 .138 0 .225-.017 0-.07.034-.139.017-.19-.121-.364.433-.433.623-.26.485.415 1.004-.018 1.454-.26-.225-.26-.433-.467-.675-.726.398-.606 1.16-.588 1.817-.796Zm-38.576-.917c-.623.26-1.09.657-1.42 1.228-.328.571-.38 1.09-.155 1.575.173.397.485.674.97.813.467.138.986.086 1.54-.156.623-.26 1.107-.657 1.436-1.211.329-.554.38-1.073.173-1.574-.173-.433-.52-.71-1.004-.83-.502-.122-1.003-.07-1.54.155Zm49.116-2.162c.415.294 5.036 1.643 5.572 1.626l-1.02 3.442-.9-.83c.345-.363.622-.865.83-1.488l-1.679-.484-.554 1.903-.882-.139c.242-.294.554-1.47.727-1.972l-1.766-.519c-.276.935-.38 1.782-.311 2.526l-.017.017-.97-.813.97-3.27Zm-16.874.847c.26-.017.554-.017.779.121.432.243.103.692-.295.744.087 1.246-.276 2.785-1.54 3.322-1.194-.485-1.523-2.18-1.056-3.304-.501-.45-.64-1.28.295-.917.623-.658 1.384-1.073 1.817.034Zm-3.738.623c.207.225.294.485.242.727-.092.568.195.985.521 1.393l.22.273c.218.274.42.558.505.894-.242.467-.865.104-1.263.104-.883-.45-1.021-1.713-1.54-2.509-.191-.26-.018-.45.259-.553-.346-1.211.606-.19 1.056-.329Zm46.38-1.885c.07.224.26.363.468.45.208.172-1.679 2.629-1.73 2.82-.087.12-.226.19-.347.172a.637.637 0 0 0-.38-.38.695.695 0 0 0-.26-.052c-.537-.312 1.558-2.682 1.627-2.993.173-.277.45-.19.623-.017Zm-52.3-1.142c.745.069 1.541.207 2.303.277 1.107.605-.122 1.833-1.056 1.591-1.073.104-2.683-.623-1.246-1.868Zm21.755-4.55c1.506.969-.675 2.457-1.817 2.197.034.761 1.575.017 1.955.38.797.399.97 1.367.918 2.146-.087.26-.398.12-.468.415-.051.242-.398.242-.536 0-.104-.173-.156-.38-.415-.363a7.95 7.95 0 0 1-.19-.398c.12-.139.224-.225.31-.329-.276-.623-.934-.519-1.47-.415-.416.07-.814.017-1.09-.294-1.143-.917-2.89-.433-4.171-.07-1.61.243-2.666 1.748-4.379 1.661-.71.121-.675.97-1.644.97-1.298.155-2.579.5-3.86.414-.103-.155-.017-.432-.259-.519-.485-.328-.329-.605.156-.778.12-.242.19-.433.502-.502.969.9 2.284-.138 3.201.744 1.298-.277 1.8-1.436 2.164-2.56 1.817-.675 3.945-.727 5.884-.882.35-.039.722-.05 1.104-.051h.871c1.072-.004 2.15-.06 2.974-.59.537-.986-1.263-1.193-1.488-.328-.398.692-1.592.311-2.302.536-.12-.329.364-.311.346-.588-2.405.035-5.538 2.162-6.974-.848 2.25-.45 1.73 1.211 2.752.986 2.578-.294 5.382-1.522 7.926-.934Zm-42.903.346c.087.467-3.374 4.498-3.374 4.498s3.634-.675 3.928-.606l.294 1.142-5.832.727-.329-1.263c.139-.052 3.012-3.304 3.012-3.304s-3.185.45-3.462.484l-.12-1.02 5.883-.658Zm38.819 2.785c.086.45.173.9.57 1.211-1.02.917-2.422.796-3.616 1.332-.243-.017-.225-.346-.502-.328-.225.017-.364-.139-.467-.346.052-.11.144-.168.243-.214l.15-.065c.147-.067.273-.154.264-.396.035-.052.277-.156.364-.07.45.208.882.105 1.367-.103-.156-.26-.364-.433-.312-.744.589-.329 1.246-.225 1.939-.277Zm-8.082-3.252c.19.536.917.19 1.107.657.104.416-.26.537-.536.796.432 1.35-.364 2.958-1.592 3.512-1.073-.64-1.489-2.18-1.09-3.339.31-.519-.433-.813-.157-1.297.26-.121.537.017.814-.018.38-.432.986-.951 1.454-.31Zm21.321-.415c.9.07 1.662.121 2.475.19.467 5.743-4.794 6.072-4.223 2.803 1.921 1.072 3.34 1.038 3.202-1.54-.45-.121-.883-.225-1.367-.346-.035-.346-.052-.675-.087-1.107Zm-25.51.865c.312.19.312.19.727.086.225.173.26.45.156.675-.433 1.228.987 2.007 1.056 3.235-1.367.536-2.475-2.093-2.838-3.149.138-.069.242-.103.346-.155-.052-.363.017-.952.553-.692Zm50.054-1.13.049.005c.12.277.45.433.744.381.415.242-1.177 2.872-1.212 3.148a.276.276 0 0 1-.12.156c.155-.588-.485-1.107-.987-.796.159-.175 1.036-2.605 1.472-2.871l.054-.022Zm-82.417-2.105c1.662.329 4.344.329 6.006.017l-.087 1.246c-1.661-.329-4.344-.329-6.005-.018l.086-1.245Zm27.83-5.12c.76.259.795 1.245.397 1.73-.554.743-1.523.657-2.319.985.346.554.952.329 1.42.121.917-.588 2.215 1.661 1.401 2.146-.104.017-.07.12-.086.207-.122.675-.918.363-.78-.173a4.728 4.728 0 0 1-.38-.121c.035-.225.087-.432.121-.64-1.419-.744-1.713 1.107-3.305-1.073-1.402-.017-2.77.19-4.137.45-1.107.312-1.834 1.384-3.115 1.298-.536 0-.83.484-1.315.64-1.211.328-2.561.917-3.79.432.208-.502.346-1.038.329-1.591l-.018-.052.104.052a.239.239 0 0 0 .07.052c.086.086.19.19.276.294.952.26 1.368-.416 2.32.173 1.159-.33 1.851-1.125 2.25-2.336 2.647-1.176 8.583.554 10.47-1.297.484-1.16-1.523-1.055-1.835-.208-.588.606-1.627.312-2.423.467.139-.328.52-.467.675-.83-2.25.225-5.486 2.197-6.559-.882 3.011-.018.312 1.816 4.102.795 2.007-.19 4.136-1.193 6.126-.64Zm-3.618 3.788c.087.415.364.675.537 1.02-.64.468-5.037 2.146-4.69.537a5.158 5.158 0 0 1-.416-.242c.07-.45.07-.45.52-.416.173-.103.051-.346.276-.397.416-.122.502.294.745.536.45-.07.9-.07 1.315-.346-.052-.277-.38-.433-.312-.796.537-.017 1.852-.605 2.025.104Zm25.527-17.697.121.104-.484.83c.761.017.553 1.16-.156.934v-.069c.329-.242-.277-.588-.346-.19v7.75l.519-.208v1.228l-.516-.206.002.015.001.037v.196c-.002.53-.022 1.804-.027 3.168l-.002.411v.413c.003 2.404.068 4.683.369 3.336v-.07c.311-.103.658.122.658.45 0 .26-.225.467-.502.485l.484.83-.12.104c-.008 0-.16-.081-.334-.176l-.212-.116-.32-.175c0 .71-1.212.536-.987-.156h.07c.103.173.398.087.398-.121 0-.104-.087-.19-.19-.208h-7.148l.225.485h-1.298l.225-.485h-7.165c-.104.018-.19.104-.19.208 0 .208.294.294.397.121h.07c.225.692-.987.865-.987.156-.017 0-.848.467-.865.467l-.121-.104.484-.83c-.778-.018-.553-1.16.156-.934v.069c.295 1.285.364-.825.369-3.142v-.437l-.001-.453c-.006-1.357-.026-2.644-.028-3.225v-.167c0-.069 0-.117.002-.14l.001-.013-.499.207V63.8l.497.223v-.019l-.002-.09v-.239c.003-.624.022-1.978.024-3.373v-.442c-.004-2.425-.068-4.757-.363-3.395v.07c-.71.224-.917-.917-.156-.935l-.502-.847.122-.104.325.18.214.119c.176.095.326.175.326.168.017-.71 1.229-.536.986.156h-.069c-.26-.312-.623.26-.19.328h7.147l-.225-.484h1.298l-.225.484h7.165c.416-.086.052-.64-.207-.328h-.07c-.225-.692.97-.865.987-.156.017 0 .848-.467.865-.467ZM93.68 68.816c.242.017.501.017.778.034.035.156.07.295.122.468a3.653 3.653 0 0 1-.468.31c.26 1.281-.38 3.409-1.938 3.357-.83-1.073-1.021-2.232-.329-3.512-.242-.104-.38-.277-.502-.519.312-.398.312-.398.762-.225.675-.657 1.003-.64 1.575.087Zm31.93-12.75h-15.576v16.711h15.576v-16.71ZM90.357 70.511a3.8 3.8 0 0 0 .242.312c.45.397.588 1.055.623 1.591-.398.156-.606.104-.97-.242a5.41 5.41 0 0 0 .174-.761c.052-.277-.104-.606-.07-.9Zm34.647-13.84v15.5h-14.347v-15.5h14.347Zm-8.065.45h-5.313v.468h-.484v5.985c.017.294.502.07.26-.12l.069-.07c.484-.07.553.64.069.675v.017l.57.26v.172l-.57.26v.017c.467.017.398.727-.07.675l-.069-.07c.243-.207-.225-.415-.26-.12v5.985h.485v.467h5.313c.312-.034.07-.45-.138-.242l-.07-.07c-.051-.45.71-.501.728-.051h.017l.26-.554h.173l.276.554h.018c.017-.45.779-.398.727.052l-.07.069c-.207-.225-.45.207-.138.242h5.313v-.467h.481a.952.952 0 0 1-.004-.083v-.215c.003-.516.023-1.62.026-2.732v-.777c-.008-1.59-.066-2.899-.278-2.075l-.07.07c-.467.069-.536-.658-.051-.675v-.017l-.571-.243v-.19l.57-.242v-.017c-.484-.018-.415-.727.053-.675l.069.07c.216.814.273-.534.279-2.142v-.587l-.001-.197-.002-.393c-.007-.909-.021-1.756-.024-2.208v-.232c.001-.076.004-.114.008-.106h-.485v-.467h-5.313c-.294.052-.052.45.138.242l.07.069c.052.467-.727.502-.727.035l-.277.57h-.19l-.277-.57-.01.081c-.085.38-.766.322-.717-.116l.069-.07c.19.208.433-.19.138-.241Zm18.812 8.668c.225.605.381 1.09.537 1.54-.554.674-1.073 1.314-1.627 2.006.779.536 1.627.847 2.492 1.107.035.311.052.57.104.951-4.43-1.54-4.413-2.04-1.506-5.604Zm25.424 2.785c-.16.127-.158.865-.183 1.133.309.269.609.55.9.847l.284.301.004-.084c.035-.512.278-2.006.033-2.128-.294.277-.779.277-1.038-.07Zm-37.832-9.1c-.502 2.388-1.35.865-2.06 1.713-.029 1.083.388 1.993.831 2.897l.242.494c.277.536.762 1.764.225 2.266-.57.536-1.211.19-1.678-.398-.502-.467-.502.778-.26 1.107.225.813 1.16.657.761 1.592-.173 1.02-1.176 1.349-1.834 1.487-.346.104-.138-.519-.346-.415-.38.294-1.09.329-.658-.26.052-.034.329-.138.294-.224-.415-.415.07-.865.485-.554.71.536 1.246-.121.658-.692-.364-.467-1.039-.744-1.333-1.107-.156-.138.242-1.055.363-1.246.64-1.314-3.565-2.231 0-3.027.277-.311.693.917.848 1.038.589.761 1.108 1.99 1.973 2.335.52.139.623-1.037.035-1.47-.138-.138-1.177-.605-1.177-.605l-.484-1.004c1.003.208 1.125.294.605-.778-.83-1.903.814-3.028 2.51-3.149Zm-5.833 5.951c1.818.415-.017 1.125.208 2.215.052 1.003.796 1.262-.64 1.383h.017c-1.315.19-2.302-.363-3.444-.882-.519-.034-.554-.536-.173-.692.121-.017.19-.138.139-.242-.139-.277.207-.761.467-.398.138.156.225.156.294.035.121-.26.502-.173.502.207-.173.467 1.194 1.021 1.557.813.087-.069.104-.173.035-.276-.156-.19-.242-.952-.294-1.211-.242-1.073.433-1.004 1.332-.952Zm38.975-1.764-.814.138c1.315 1.782 2.7 3.702 4.396 5.224.017-.519.104-1.314.675-1.47l-.346-.951c-.71.519-2.925-1.644-3.513-1.869-.347-.242-.485-.674-.398-1.072Zm-51.556-1.678c.761.276.796 1.263.398 1.747-.322.446-.806.594-1.314.711l-.34.077a4.21 4.21 0 0 0-.665.198c.346.554.952.346 1.419.121.9-.588 2.198 1.66 1.402 2.093-.104.018-.07.121-.087.208-.121.692-.917.363-.779-.173-.12-.035-.242-.07-.38-.121.034-.225.086-.433.12-.64-.522-.27-.893-.198-1.23-.101l-.167.05c-.522.152-1.008.233-1.925-1.022-1.385-.017-2.77.19-4.136.45-.346.097-.655.269-.956.456l-.358.229c-.536.343-1.081.661-1.801.612-.537 0-.831.485-1.316.64-.744.208-1.557.52-2.353.606a4.546 4.546 0 0 0-.104-.675 4.523 4.523 0 0 1-.156-.657c.692.034 1.125-.38 1.921.12 1.16-.328 1.852-1.123 2.25-2.334 1.135-.505 2.873-.475 4.64-.422l.707.021c2.116.06 4.161.055 5.14-.897.468-1.159-1.54-1.055-1.851-.207-.606.605-1.644.31-2.44.467.138-.33.519-.467.674-.83-.489.048-1.024.18-1.574.324l-.498.131c-1.834.48-3.717.871-4.487-1.338 1.33-.008 1.546.346 1.7.655l.047.096.042.077c.18.295.523.45 2.313-.032 2.025-.19 4.136-1.194 6.144-.64Zm-3.635 3.806c.087.415.347.674.554 1.02-.657.467-5.053 2.145-4.707.536-.139-.069-.277-.155-.416-.242.07-.45.07-.45.52-.415.173-.104.052-.346.277-.398.276-.08.407.077.535.263l.098.141c.034.047.07.092.11.132.45-.069.9-.069 1.316-.346-.052-.276-.38-.432-.311-.795.536-.018 1.851-.606 2.024.104Zm-7.77-3.53c.242.018.502.018.779.035.034.156.069.294.12.467a3.372 3.372 0 0 0-.45.312c.26 1.28-.38 3.407-1.938 3.356-.848-1.073-1.038-2.232-.346-3.512-.242-.104-.38-.277-.502-.52.295-.397.295-.397.762-.224.675-.657 1.004-.64 1.575.086Zm-4.102-.138c.26.329.589.138.848.38-.502.554-.346 1.246.156 1.765.45.398.588 1.055.623 1.626-1.038.364-2.094-1.609-2.388-2.439-.208-.484-.727-.761.173-.9.086-.38.277-.795.588-.432Zm47.212-.086c.329.086.762.086.97.311.363.554 1.695 1.868.12 1.868-.38-.657-.796-1.349-1.194-2.041l.104-.138Zm-17.047-3.149c.398.139.71-.052.831.19-.07.243-.52.433-.744.433-.07.035-.018.156.069.225.225.173.433.986.277 1.366-.329 1.263-.917 1.73-2.094 1.903-.416.035-.45.035-.502.173-.052.139-.658.727-.865.917-1.177.19-2.198-.086-3.116-.45-.432-.242-1.211.018-.692-.726l-.069-.087c-.467-1.003.571-.415.779-.484-.312-.38.017-.727.432-.26 1.125.935 1.54.952 2.683.744.148-.117.261-.325.369-.548l.129-.269c.15-.311.315-.593.575-.636.346-.173.952-.346 1.125-.709.017-.277-.329-.242-.554.017-.329.433-1.575.38-1.211-.155.138-.018.588-.122.588-.122l-.017-.45-.623-.068s-.104-.346-.156-.502c-.242-.398 1.125-.433 1.35-.71.329-.19 1.125.07 1.436.208Zm14.313 3.01c.19.26.311.45.467.675-.71.57-1.54.917-2.336 1.384-.277-.753.282-1.11.902-1.445l.35-.189c.232-.128.45-.263.617-.425Zm-48.091-5.49.204.006v1.108c-3.202-.692-2.648 3.892 0 4.065v1.038c-3.965.134-4.146-6.02-.402-6.213l.198-.004Zm28.915 2.342c.225.12.796-.64.814.034.034.19-.433.45-.398.64.017.589.467 1.229 1.211 1.886.156.121.277.242.294.242 0 .104-.225.796-.467.882v.018c-.796.294-1.627-1.073-2.008-1.592-.19-.138-.45-1.141-.796-1.35-.502-.224-.415-.605.19-.587.191 0 .226-.018.278-.087.12-.086-.07-.501.086-.57.26-.277.675.293.796.484ZM94.856 54.82c2.994-.017.295 1.816 4.067.796 2.008-.173 4.102-1.177 6.092-.623.762.26.796 1.245.398 1.73-.536.744-1.523.657-2.301.986.363.553.969.329 1.419.12.882-.587 2.18 1.644 1.315 2.06-.104.017-.07.12-.087.207-.103.675-.9.363-.761-.173-.104-.034-.225-.07-.363-.121.034-.225.086-.432.12-.64-.515-.264-.88-.19-1.213-.092l-.163.049c-.514.153-.995.233-1.912-1.012-1.384-.018-2.751.19-4.101.45-1.108.31-1.817 1.366-3.098 1.28-.537 0-.813.484-1.298.64-1.229.328-2.596.934-3.842.398l.052-.312c-.19-.19-.398.035-.589.017-.467-.276.018-.882.468-.76v-.433c.351-.264.591-.081.814.16l.12.134c.935.26 1.368-.398 2.302.173 1.142-.329 1.835-1.125 2.233-2.318 1.127-.504 2.852-.478 4.604-.427l.7.02c2.1.058 4.127.052 5.097-.89.467-1.142-1.523-1.056-1.835-.208-.57.605-1.61.311-2.405.467.155-.312.519-.45.675-.813-2.233.225-5.435 2.197-6.508-.865Zm6.56 3.961c.086.416.363.658.57 1.021-.657.467-5.018 2.128-4.672.536a5.158 5.158 0 0 1-.415-.242c.069-.45.069-.45.519-.415.173-.104.052-.346.277-.398.265-.08.4.085.527.27l.095.14c.033.046.067.089.105.126.432-.069.882-.069 1.298-.346-.052-.294-.381-.432-.312-.795.536-.018 1.834-.589 2.008.103Zm28.919-2.889c1.176.883-1.004 3.702-1.42 4.844l-.155-.052v-3.754c-.104-.847 1.038-.726 1.575-1.038Zm-36.638-.622c.242.017.502.017.779.034.034.156.069.294.12.467l-.466.312c.26 1.28-.381 3.39-1.921 3.338-.814-1.072-1.022-2.214-.33-3.494a1.044 1.044 0 0 1-.501-.519c.311-.398.311-.398.761-.225.658-.64 1.004-.64 1.558.087Zm-4.05-.121c.242.328.571.138.83.38-.501.536-.345 1.246.157 1.747.45.38.588 1.038.623 1.61-1.021.38-2.077-1.592-2.371-2.405-.208-.485-.71-.779.173-.9.086-.38.277-.796.588-.432Zm-31.29-9.896c.814.346 1.367.381 2.267.104.623 1.02 1.766 1.436 2.994 1.696.381.086.745.242.935.657.71.882 1.904 1.038 2.96 1.643 1.09 2.89-.053 6.297 1.713 9.1-6.459-1.738-3.924-4.28-3.86-8.915v-.219l-.09.248c-.756 1.987-2.153 3.91-1.571 6.118-1.194-.485-1.904-1.834-2.388-2.993-.693-1.834.83-3.304 1.696-4.774-1.125.691-2.13 1.522-2.787 2.906-.346-1.367-.848-2.578.07-3.91-1.143.38-2.008-.64-1.939-1.66Zm80.873-.9-2.077.07s.762 4.757.744 4.896l1.177.969-1.351.854-.006.074c-.018.202-.052.479-.06.545l-.002.014c3.617-.536 11.976 2.716 14.451 5.536 0 0 .26-.346.398-.519l.07.017-.52-1.487 1.056.103c.283-.21 1.12-.642 1.996-1.074l.406-.198c1.079-.524 2.097-.994 2.097-.994l-1.523-1.903s-.034 1.194-.467 1.626a.98.98 0 0 0-.45-.052c-.19-.467.052-1.383.052-1.383l-2.042 1.505s.97.017 1.385.311a.815.815 0 0 0-.07.294c-1.661.848-3.79-.848-2.648-2.041.658-.537 1.23.173.572.778 1.903.156 1.817-2.577-.156-1.747.848-.727 1.229-1.246.986-2.197-.917.138-1.332.675-1.644 1.851-.121-2.456-2.682-.848-1.73.623.484-1.66 1.869.328.12.865-1.453.363-2.768-1.073-2.318-2.526.086-.035.19-.07.26-.121.588.363.916 1.47.916 1.47l1.143-2.525-.043.02c-.204.1-1.108.517-1.688.395a.846.846 0 0 0-.138-.398c.398-.57 1.66-.882 1.66-.882l-3.183-1.228s.675 1.072.57 1.747a.825.825 0 0 0-.38.207c-.571-.346-.97-1.453-.97-1.453l-.951 2.595.088-.048.143-.071c.341-.164.994-.428 1.482-.33a.815.815 0 0 0 .104.259c-.692 1.35-2.665 1.54-3.478.294-.883-1.592 1.54-2.076.692-.554 1.713-.432 1.02-3.304-.814-1.609.606-1.055.675-1.73.122-2.439-.849.537-.935 1.16-.831 2.25-.83-1.904-2.838-.018-1.35 1.176-.052-.883.865-1.021.952-.19 0 1.59-2.717 1.487-3.323-.381.086-.07.121-.173.156-.277.415.138.986.951.986.951l-.19-2.802s-.45.865-.866 1.038a1.156 1.156 0 0 0-.294-.346c.035-.692.779-1.557.779-1.557Zm-5.555 8.633c-.139.208-.104.502.069.71.225.31.658.294.917.051l-.571 2.215c-.087.346-.485.207-.727.138a6.983 6.983 0 0 0-.502-.519c.087-.138.537-2.647.814-2.595ZM76.823 38.18c.554.692.571 1.453.017 2.595 1.523-.173 2.58 1.73 2.994 3.027-1.574-1.02-3.253-1.038-4.932-.951-.017.052-.017.121-.034.173 4.05.64 5.901 2.716 5.624 6.885-1.263-2.18-3.582-2.958-5.901-3.789 3.582 2.664 6.351 4.29 3.755 9.152-1.177-3.01-3.807-5.12-5.365-7.906 1.038-1.246 1.488-2.578 1.16-4.152.796-1.055 1.263-2.266 1.09-3.702.83-.034 1.333-.536 1.592-1.332Zm-4.805 9.007.168.07c.14.057.276.103.414.074.675 1.402 1.333 2.768 2.025 4.187-.311.311-.71.12-1.142.017-.485 1.626-1.817 2.335-3.288 1.297-.312.225-.606.433-.952.675-.467-1.574-.9-3.027-1.333-4.498.346-.38.658-.743 1.039-1.176.623 1.47.311 4.1 2.405 3.979 2.129-.606.398-3.218-.069-4.515.268-.25.506-.198.733-.11Zm19.896 5.075a3.676 3.676 0 0 0-1.22 1.141h1.857c-.277-.504-.504-.91-.637-1.141Zm29.94-2.37c1.177.934 2.164 1.124 1.696 2.854-.415.035-.848.07-1.332.104a66.17 66.17 0 0 0-.329-.969c-.675.917-1.35 1.28-2.51 1.367.727-1.211 1.99-1.92 2.475-3.356Zm-18.067 1.781c.726.571 1.315.9 1.747 1.038l.018.018c-.883.709-2.008.415-2.96-.087-2.751 1.557-5.728-2.076-3.513-4.394 2.32-2.785 6.94.363 4.708 3.425Zm54.255-6.798c2.527 2.231 2.596 5.432 1.021 8.234-.9-1.782-2.37-3.615-1.886-5.708.052-.018.104-.018.156-.035.415.623.83 1.263 1.246 1.903a.615.615 0 0 1 .155-.07c-.082-.304-.199-.61-.322-.918l-.15-.37c-.399-.991-.762-2.001-.22-3.036Zm-43.249 2.681 1.523.52c-.778 1.193-1.28 3.58-1.626 4.999-.623-.121-.623-.121-1.212-.19.52-1.454 1.333-3.806 1.315-5.329Zm-6.75-.744c-.31.883-.882 4.948.797 4.74.658.018 1.315-.45 1.298-1.141-.035-.97.121-2.768-.294-3.599h1.973c-.468 1.523-.468 4.204 0 5.726h-1.662c.035-.12.052-.311.052-.57-1.713 1.21-3.998.622-3.842-1.713-.017-.952.104-2.63-.294-3.443h1.973Zm-7.545 1.54c-2.198.83-.311 4.29 1.662 3.477 2.215-.865.294-4.29-1.662-3.477ZM75.56 34.858c.727 1.643.45 3.27-.571 3.736-.398-.484-.796-.986-1.23-1.505.14-.588.797-.83 1.109-1.47-.935.19-1.472.71-1.973 1.453 1.92 1.522 2.509 4.048.726 5.95-.813-.207-1.851-.034-1.886 1.039.658-.692 1.298-.433 1.921-.052.623 2.75-1.488 2.733-3.427 2.422-1.142-1.228.866-1.92.433-3.166-1.263-.104-2.302.675-3.496 1.09-.208-1.557-.865-3.08.485-4.429 1.678.312 2.665 1.782 3.253 3.287 1.42-.225-1.003-2.647-1.644-3.131 1.939.121 2.406.294 2.51-1.955-2.25.052-2.458 3.218-4.725.364.156 3.823-2.267 1.47-4.31 3.096.468.087.728.38 1.004.71.831.968 1.835.172 2.112-.848.121.017.26.017.38.034.554 5.38.347 2.163 3.323 4.342.468 1.038-1.16 1.678-1.661 2.422-1.921 1.35-4.707-2.612-.952-2.231-.848-.917-1.627-.727-2.492.57-2.838-.155-3.963-2.023-3.34-4.688-.727-.294-1.644-.155-2.388.416.64.103 1.211.207 1.834.311-.035.588-.07 1.107-.104 1.66-1.453.554-2.37-1.124-3.011-2.196.917-.779 3.011-1.298 3.011-1.298.052-.225.208-1.09.537-.588.156.71.38.934.882.571 2.77-2.318 6.213-3.235 9.71-3.875-.156-.536-.624-1.073.467-.657 0 0 2.25-1.056 3.513-1.384Zm82.759 5.414c3.877 1.505 4.569 3.893 3.306 7.802-.987-2.11-4.154-2.975-3.462-5.657.554.433 1.039.83 1.61 1.28-.035-1.366-2.198-1.972-1.454-3.425Zm-31.93.9-3.6 1.28 2.423 2.975 2.492-1.591-1.315-2.664Zm-36.344-.017-1.315 2.664 2.492 1.591 2.423-2.975-3.6-1.28Zm63.324-4.221c1.904 4.653-3.582 5.899-6.801 3.944-1.28-.156-4.707-.9-4.413 1.21.173.416.363.848.986.848-.657.623-1.246.294-1.886.07-.26.778-.935 1.384-.848 2.231.536-.034.675-.034 1.246-.069.623-1.592 2.336-1.66 2.786-.225 1.714-1.813 3.376-2.18 5.046-2.473l.528-.092c1.056-.184 2.118-.396 3.2-.981 1.143-.986 1.645-3.547.156-4.463ZM98.577 39.13c-3.928.709-3.098 5.016.814 4.22 3.91-.709 3.08-5.016-.814-4.22Zm15.87 1.54c-.588 2.715 5.59 3.909 6.04 1.158.589-2.733-5.572-3.91-6.04-1.159Zm-6.23-3.08-3.86 2.716 3.86 2.716 3.86-2.716-3.86-2.716Zm48.527-2.041c3.496.64 5.296 2.041 5.555 5.743-1.592-.882-4.482-1.124-4.43-3.408.675.225 1.367.45 2.163.71-.934-1.402-2.388-.9-3.288-3.045Zm-89.041-3.754c.917.57 1.09 1.245.64 2.283.38-.45 1.246-.467 1.16.606-.45-.467-.9-.139-.814.38.485 1.194 1.835.571 1.835-1.124-.26.104-.433.329-.64.64l-.156-1.782c.294.398.57.64.796.727-.018-.364-.122-.589-.416-1.056l1.125-.034c-.242.917-.346 2.128-.104 4.03-2.284-.069-8.22 2.405-9.691 3.858-1.108-1.574-2.008-2.387-2.821-2.889l.848-.744c.104.537.173.779.415 1.056.104-.225.139-.571.087-1.073l1.107 1.401c-.363-.086-.64-.138-.9-.034 1.16 1.21 2.579.76 2.112-.45-.294-.45-.848-.38-.848.277-.796-.727-.156-1.298.432-1.228-1.02-.433-1.367-1.056-1.09-2.094 1.073.312 1.333.934 1.315 1.972.277-.743 1.143-.743 1.23.26-.572-.398-.9.121-.624.605.952 1.16 3.15-.328 2.267-1.695-.277.052-.657.467-.83 1.194l-.814-1.626c.623.276 1.039.207 1.488.051-.328-.397-1.297-.882-1.297-.882.536-.207 1.592-.623 2.11-.83 0 0-.38 1.003-.345 1.522.432-.19.796-.432 1.055-1.055l.52 1.747c-.606-.415-1.177-.467-1.42-.311.277 1.591 2.908 1.176 2.804-.329-.138-.536-.727-.692-.865-.017-.64-.779 0-1.384.71-1.02-.727-.745-.952-1.367-.381-2.336Zm72.548 7.265c-1.488.485-4.31 2.215-4.794-.155.66.141 1.272.076 1.875-.01l.516-.075c.772-.106 1.546-.157 2.403.24Zm-.64-2.387c-.346.052-.606.07-.917.104.207 1.713 2.578.207 1.401-.71-.502-.432-1.09.174-.484.606Zm-81.063-1.28c.657 0 .657 1.038-.018 1.02-.657 0-.64-1.037.018-1.02Zm97.763-6.055c.71.415 1.004 1.488.762 2.612 2.319.364 3.046 2.232 4.032 4.135-1.73-1.073-4.482.07-5.226-2.3.692.034 1.35.068 2.007.103.018-.052.018-.121.035-.173-1.298-.415-3.357-.311-2.908-2.284.9-.38 1.316-1.107 1.298-2.093Zm-94.89 2.491c.069.087.138.19.224.277-1.09.796-1.765 2.059-1.903 3.495l-.346.294c.052-1.661.778-3.166 2.024-4.066Zm84.368 3.53c.225-.035.416-.07.64-.122.846 1.112 1.59.572 2.385-.019l.2-.148c.066-.049.134-.097.202-.144-2.094-1.419-1.973-1.8-3.427.432Zm-87.138-1.298c.675 0 .658 1.038-.017 1.02-.658 0-.64-1.037.017-1.02Zm3.046-2.733c.693.709 1.16 1.833 1.385 2.439l-.329.104c-.363-1.021-.83-1.834-1.315-2.318-.156-.156.104-.381.26-.225Zm-2.63 1.505c.675 0 .657 1.055-.018 1.02-.657 0-.64-1.038.018-1.02Zm5.503.57c-.432.416-1.073-.259-.64-.657.415-.415 1.073.242.64.658Zm.398-3.32c0 .674.26 1.59.727 2.56l-.311.155c-.277-.588-.745-1.713-.762-2.699 0-.224.346-.242.346-.017Zm-5.209 1.643c.675 0 .658 1.038-.017 1.02-.658 0-.64-1.038.017-1.02Zm4.24.484c-.433.415-1.073-.26-.64-.657.415-.416 1.073.242.64.657Zm81.686-3.27c2.164.07 5.988-.346 5.971 2.786-.813.553-2.232-.07-3.219-.07-1.28-.398-2.111-1.54-2.752-2.716ZM60.676 30.81c.675 0 .658 1.055-.017 1.02-.658 0-.64-1.038.017-1.02Zm8.896.83-.433.07c-1.108-.918-2.492-1.315-3.825-1.09-.034-.139-.034-.243-.052-.364 1.506-.26 3.098.277 4.31 1.384Zm.986-.242c-.45.484-1.211-.225-.744-.71.45-.484 1.211.243.744.71Zm-8.428-5.051.087 1.314c.051 0 .103.035.138.052l.796-.657.537 1.35-1.108-.122a.196.196 0 0 1-.052.138l.472.563.216.258.472.563c.969 1.263-1.437 2.232-1.645.64v-.023l-.103-1.793c-.052 0-.104-.035-.139-.052l-.727.848-.536-1.35 1.038-.069.026-.06.026-.06-.83-1.021c.328-.122 1.003-.381 1.332-.52Zm7.39 4.186c-.45.484-1.212-.225-.744-.71.45-.466 1.211.243.744.71Zm-1.16-.536c-.45.484-1.211-.225-.744-.71.45-.484 1.212.225.744.71Zm-2.578-.277c-.45.484-1.212-.225-.745-.71.45-.484 1.212.243.745.71Zm1.298-.017c-.45.484-1.212-.225-.745-.71.45-.484 1.212.242.745.71Zm17.981-2.976c1.367-.017 1.367 2.128 0 2.11-1.367.018-1.367-2.127 0-2.11Zm47.385 1.055c.017 1.367-2.129 1.367-2.111 0-.018-1.366 2.128-1.366 2.11 0Zm14.416-1.366c2.18.017 2.7.363 3.929 2.128-.052.069-.087.12-.139.19-1.557-.19-3.755-.19-3.79-2.318Zm-33.159-10.899c6.698 1.713 12.253 6.505 15.282 12.905l-1.921-.605c-2.977-5.397-7.927-9.393-13.81-10.864.138-.519.293-.986.45-1.436Zm-10.972 0c.173.433.311.917.45 1.436-5.867 1.47-10.834 5.467-13.81 10.864l-1.922.605c3.029-6.383 8.584-11.175 15.282-12.905Zm-16.407 8.719c1.385-.017 1.385 2.145 0 2.11-1.367.018-1.367-2.127 0-2.11Zm44.841 1.055c.018 1.367-2.128 1.367-2.111 0-.017-1.366 2.129-1.366 2.111 0Zm17.203.433c-2.077.12-3.34-.744-3.254-2.25 1.644-.086 2.717.727 3.254 2.25Zm-35.115-11.452c-1.177 2.543-1.817 6.4-1.817 10.864h-1.402c0-2.7.26-7.768 1.938-11.452.381-.848 1.68-.243 1.281.588Zm-8.792-.588c1.68 3.684 1.939 8.753 1.939 11.452h-1.402c0-4.446-.658-8.304-1.817-10.864-.398-.83.9-1.419 1.28-.588Zm3.756 9.15c1.488-.034 1.488 2.302 0 2.284-1.488.035-1.488-2.3 0-2.283Zm-20.352-.95c1.367-.018 1.367 2.144 0 2.11-1.368.017-1.368-2.128 0-2.11Zm39.666 1.055c-.017-1.367 2.129-1.367 2.111 0 .018 1.366-2.128 1.366-2.111 0Zm15.94-1.851c1.28-.139 2.093.363 2.578 1.608-1.558.225-2.146-.103-2.579-1.608Zm-35.254-1.125c1.488-.017 1.488 2.301 0 2.284-1.488.034-1.488-2.301 0-2.284Zm18.604-.26c1.368-.017 1.368 2.146 0 2.111-1.367.017-1.367-2.128 0-2.11Zm-37.191 0c1.367-.017 1.367 2.146 0 2.111-1.367.017-1.367-2.128 0-2.11Zm52.49-.726c1.264-.138 1.575.035 2.18 1.315-.9.432-1.66-.035-2.18-1.315Zm-50.517-1.245c1.367-.018 1.367 2.127 0 2.11-1.367.017-1.367-2.128 0-2.11Zm33.245 0c1.368-.018 1.368 2.127 0 2.11-1.367.017-1.367-2.128 0-2.11Zm-16.631-.64c1.488-.018 1.488 2.318 0 2.283-1.488.035-1.488-2.3 0-2.283Zm32.415-.45c.83-.329 2.007.744 1.782 1.574-.726.121-1.678-.675-1.782-1.574Zm-17.947-.675c1.367-.017 1.367 2.128 0 2.11-1.367.018-1.367-2.127 0-2.11Zm-28.919 0c1.367-.017 1.367 2.128 0 2.11-1.367.018-1.367-2.127 0-2.11Zm15.264.623a1.797 1.797 0 0 0-1.626 0c-1.627-2.543 3.27-2.543 1.626 0Zm11.301-2.145c1.368-.018 1.368 2.145 0 2.11-1.367.018-1.367-2.128 0-2.11Zm-24.211 0c1.367-.018 1.367 2.145 0 2.11-1.367.018-1.367-2.128 0-2.11Zm21.702-1.246c1.385-.017 1.385 2.145 0 2.11-1.367.018-1.367-2.127 0-2.11Zm-19.21 0c1.367-.017 1.367 2.145 0 2.11-1.367.018-1.367-2.127 0-2.11ZM110.83 0v.38c-.952.174-1.713 1.298-1.903 2.768 1.453-.19 2.595-.951 2.769-1.902h.38v5.19h-.38c-.19-.952-1.316-1.713-2.77-1.904.19 1.453.952 2.595 1.904 2.768v.38h-1.852c.087.07.156.14.225.226 3.306.744 3.652 5.795.485 6.989 1.246-1.194.294-3.478-1.454-3.426-1.748-.069-2.682 2.232-1.453 3.426-3.168-1.194-2.839-6.245.484-6.99.052-.086.139-.155.225-.224h-1.852V7.3c.952-.174 1.714-1.298 1.904-2.769-1.454.19-2.596.952-2.769 1.903h-.38v-5.19h.38c.173.952 1.298 1.713 2.769 1.903-.19-1.453-.952-2.594-1.904-2.767V0h5.192Zm4.361 12.248c1.385-.018 1.385 2.145 0 2.11-1.367.018-1.367-2.128 0-2.11Zm-13.949 0c1.368-.018 1.368 2.145 0 2.11-1.367.018-1.367-2.128 0-2.11Zm6.075 1.92c-1.28-2.37 3.098-2.37 1.817 0-.519-.329-1.28-.329-1.817 0Z"/></svg>
