<svg xmlns="http://www.w3.org/2000/svg" width="600" height="124"><path fill="#FFF" fill-rule="nonzero" d="M108 60.928583c0-3.565075-2.276905-6.417073-5.59524-7.195145v-4.148474C105.723095 48.807203 108 45.954894 108 42.389819 108 38.17635 104.877264 35 100.583112 35c-3.708288 0-6.44076 2.333594-7.2216 5.574628H14.638578C13.857832 37.333594 11.060243 35 7.416885 35 3.057835 35 0 38.241345 0 42.389819c0 3.565075 2.21205 6.417384 5.595174 7.195145v4.148474C2.27711 54.51151 0 57.363508 0 60.928583c0 3.565386 2.21205 6.417384 5.595174 7.195145v4.148785C2.27711 73.050273 0 75.902583 0 79.467658s2.21205 6.417384 5.595174 7.195145v4.148474C2.27711 91.589349 0 94.441347 0 98.006422c0 3.565386 2.21205 6.417384 5.595174 7.195145v4.148785C2.27711 110.128113 0 112.980422 0 116.545497c0 4.213469 3.122889 7.389508 7.416885 7.389508 4.359019 0 7.416856-3.241034 7.416856-7.389508 0-3.565075-2.277122-6.417384-5.595177-7.195145v-4.148785c3.318055-.777761 5.595177-3.629759 5.595177-7.195145 0-3.565075-2.277122-6.417073-5.595177-7.195145v-4.148474c3.318055-.77776 5.595177-3.63007 5.595177-7.195145s-2.277122-6.417384-5.595177-7.195145v-4.148785c3.318055-.777761 5.595177-3.629759 5.595177-7.195145 0-3.565075-2.277122-6.417073-5.595177-7.195145v-4.148474c2.732534-.648083 4.749408-2.657635 5.400014-5.380266h3.968661V124h.845801c1.951788-5.769302 4.814462-11.084573 8.45782-15.751761v-.972124h-3.708443V96.126859h9.303745v11.149256h-1.88695v1.037119c2.4072 4.796556 4.229158 10.047143 5.204974 15.686766h.715537c1.04112-5.574628 2.797775-10.89021 5.204975-15.686766v-1.037119h-1.886951V96.126859h9.303839v11.149256h-1.886952v1.037119c2.4072 4.796556 4.22916 10.047143 5.204976 15.686766h.715536c1.04112-5.574628 2.797775-10.89021 5.204975-15.686766v-1.037119h-1.88695V96.126859h9.303838v11.149256h-1.886951v1.037119c2.4072 4.796556 4.229159 10.047143 5.204975 15.686766h.715536c1.04112-5.574628 2.797776-10.89021 5.204976-15.686766v-1.037119h-1.886951V96.126859h9.303838v11.149256h-3.708599v.972124C83.40713 112.915427 86.269897 118.230698 88.22184 124h.845832V44.204698h3.968568c.650544 2.657636 2.602488 4.732183 5.399952 5.380266v4.148474c-3.318024.778072-5.59524 3.63007-5.59524 7.195145 0 3.565386 2.212224 6.417384 5.59524 7.195145v4.148785c-3.318024.77776-5.59524 3.63007-5.59524 7.195145s2.212224 6.417384 5.59524 7.195145v4.148474c-3.318024.778072-5.59524 3.63007-5.59524 7.195145 0 3.565386 2.212224 6.417384 5.59524 7.195145v4.148785c-3.318024.777761-5.59524 3.63007-5.59524 7.195145 0 4.213469 3.123048 7.389508 7.416888 7.389508 4.359144 0 7.416888-3.241034 7.416888-7.389508 0-3.565075-2.277216-6.417384-5.59524-7.195145v-4.148785c3.318024-.777761 5.59524-3.629759 5.59524-7.195145 0-3.565075-2.277216-6.417073-5.59524-7.195145v-4.148474c3.318024-.77776 5.59524-3.63007 5.59524-7.195145s-2.277216-6.417384-5.59524-7.195145v-4.148785C105.723095 67.345967 108 64.49397 108 60.928583Zm-97 55.377076C11 118.509328 9.587726 120 7.500015 120 5.412274 120 4 118.509328 4 116.305659 4 114.75 4.675438 113.583333 5.780692 113c.184223.842662.798263 1.425995 1.719323 1.425995.859632 0 1.53507-.583333 1.719293-1.425995C10.324562 113.583333 11 114.814988 11 116.305659Zm0-17.805824c0 1.647195-.675438 2.882508-1.780692 3.500165-.184223-.892244-.859661-1.509901-1.719293-1.509901-.92106 0-1.5351.617657-1.719323 1.509901C4.675438 101.382343 4 100.14703 4 98.499835 4 96.85297 4.675438 95.617657 5.780692 95c.184223.892244.798263 1.5099 1.719323 1.5099.859632 0 1.53507-.617656 1.719293-1.5099C10.324562 95.617657 11 96.85297 11 98.499835Zm0-18.99967C11 81.14703 10.324562 82.382343 9.219308 83c-.184223-.891915-.859661-1.509572-1.719293-1.509572-.92106 0-1.5351.617657-1.719323 1.509572C4.675438 82.382343 4 81.14703 4 79.500165 4 77.85297 4.675438 76.617657 5.780692 76c.184223.892244.798263 1.5099 1.719323 1.5099.859632 0 1.53507-.617656 1.719293-1.5099C10.324562 76.617657 11 77.85297 11 79.500165ZM9.219308 46c-.184223-.842388-.859661-1.425747-1.719293-1.425747-.92106 0-1.5351.583359-1.719323 1.425747C4.675438 45.41664 4 44.249922 4 42.694505 4 40.490738 5.412274 39 7.500015 39 9.587726 39 11 40.490738 11 42.694505 11 44.185243 10.324562 45.41664 9.219308 46ZM33 91h-9V80h9v11Zm0-17h-9V63h9v11Zm0-17h-9V46h9v11Zm17 34h-9V80h9v11Zm0-17h-9V63h9v11Zm0-17h-9V46h9v11Zm17 34h-9V80h9v11Zm0-17h-9V63h9v11Zm0-17h-9V46h9v11Zm16 34h-9V80h9v11Zm0-17h-9V63h9v11Zm0-17h-9V46h9v11Zm14-14.305495C97 40.490738 98.412268 39 100.499853 39 102.587732 39 104 40.490738 104 42.694505c0 1.555417-.675611 2.722136-1.78089 3.305495-.184017-.842388-.859628-1.425747-1.719257-1.425747-.920967 0-1.534946.583359-1.719257 1.425747C97.675318 45.41664 97 44.185243 97 42.694505Zm7 73.611154C104 118.509328 102.587732 120 100.499853 120 98.412268 120 97 118.509328 97 116.305659c0-1.555659.675318-2.722326 1.780596-3.305659.184311.842662.79829 1.425995 1.719257 1.425995.859629 0 1.53524-.583333 1.719257-1.425995 1.105279.583333 1.78089 1.814988 1.78089 3.305659Zm0-17.805824c0 1.647195-.675611 2.882508-1.78089 3.500165-.184017-.892244-.859628-1.509901-1.719257-1.509901-.920967 0-1.534946.617657-1.719257 1.509901C97.675318 101.382343 97 100.14703 97 98.499835c0-1.646865.675318-2.882178 1.780596-3.499835.184311.892244.79829 1.5099 1.719257 1.5099.859629 0 1.53524-.617656 1.719257-1.5099C103.324389 95.617657 104 96.85297 104 98.499835Zm0-18.99967c0 1.646865-.675611 2.882178-1.78089 3.499835-.184017-.891915-.859628-1.509572-1.719257-1.509572-.920967 0-1.534946.617657-1.719257 1.509572C97.675318 82.382343 97 81.14703 97 79.500165c0-1.647195.675318-2.882508 1.780596-3.500165.184311.892244.79829 1.5099 1.719257 1.5099.859629 0 1.53524-.617656 1.719257-1.5099C103.324389 76.617657 104 77.85297 104 79.500165Zm-93-18.00033C11 63.14703 10.324562 64.382343 9.219308 65c-.184223-.892244-.859661-1.5099-1.719293-1.5099-.92106 0-1.5351.617656-1.719323 1.5099C4.675438 64.382343 4 63.14703 4 61.499835 4 59.85297 4.675438 58.617657 5.780692 58c.184223.892244.798263 1.5099 1.719323 1.5099.859632 0 1.53507-.617656 1.719293-1.5099C10.324562 58.617657 11 59.85297 11 61.499835ZM509.299802 51C520.282115 51 526 58.349196 526 68.728442c0 2.127561-.326115 4.190483-.714347 5.479886h-26.253818c.326115 7.413835 3.835735 12.506808 10.267967 12.506808 4.09352.06433 7.016133-1.547346 8.38271-6.253404l8.121819 2.385194C523.919075 91.163251 516.902942 94 508.908463 94 497.668363 94 490 86.392862 490 72.918925 490 59.122714 497.407471 51 509.299802 51Zm-107.742491 0c8.717395 0 15.060938 3.615392 15.060938 12.977561v18.40096c0 2.905447 1.344672 3.744557 3.010963 3.744557.961792 0 1.794938-.193593 2.370788-.451924v7.037502c-1.344672.645827-3.010962.968585-5.124456.968585-4.873287 0-7.819926-2.066027-8.846042-6.585577C405.980332 92.256732 401.428664 94 396.046913 94 388.934548 94 384 89.803518 384 82.830445c0-8.845507 7.433984-15.172754 20.954216-15.172754h2.499435v-2.84102c0-4.583977-2.563759-6.585577-6.536514-6.585577-3.972755 0-6.472191 1.808006-7.048041 6.327557l-8.524424-1.42051C385.984846 54.421799 393.41883 51 401.557311 51Zm-44.035684-15v46.309264c0 2.597768 1.520048 3.572126 3.700573 3.572126 1.058661 0 1.984594-.129935 2.7778-.389806v7.53437c-2.047798.649364-3.966028.974046-5.751531.974046C352.69287 94 348 91.207173 348 84.517538V36h9.521627Zm228.783587 5v11.178187h12.087431v7.259396h-12.216511V80.12381c0 4.304044 1.865515 6.103021 5.206231 6.103021 2.636923 0 4.566978-.771122 6.8812-2.377164L600 91.55873C597.107991 93.229186 593.376961 94 589.197223 94c-7.588067 0-12.281051-3.918792-12.281051-12.013415V59.373477H571v-7.19529h5.916172V41h9.389042ZM296.558441 51c8.715206 0 15.060025 3.615392 15.060025 12.977561v18.40096c0 2.905447 1.344618 3.744557 3.010841 3.744557.961754 0 1.730545-.193593 2.370693-.451924v7.037502c-1.344618.645827-3.010841.968585-5.127312.968585-4.868803 0-7.816548-2.066027-8.841704-6.585577C300.980365 92.256732 296.430411 94 291.047652 94 283.934349 94 279 89.803518 279 82.830445c0-8.845507 7.433684-15.172754 20.954903-15.172754h2.499335v-2.84102c0-4.583977-2.56335-6.585577-6.536558-6.585577-3.972901 0-6.472236 1.808006-7.048982 6.327557l-8.522855-1.42051C280.986604 54.421799 288.420288 51 296.558441 51ZM175 41v34.863437C175 89.513899 165.118856 94 154.467952 94 143.881144 94 134 89.5139 134 75.863437V41.064258h9.431862v32.235605c0 8.715783 3.528936 12.945464 11.03609 12.945464 7.57125 0 11.100186-4.229681 11.100186-12.881206V41H175Zm16.627742 0v21.570523h3.995411L210.359499 41h11.199548L203.61335 66.293785 223 93h-11.723588L195.42656 70.659508h-3.798818V93H182V41h9.627742ZM378 52v41h-9V52h9Zm175.700163-1C560.268695 51 566 54.747504 566 63.793715V93h-9.271048V66.895503c0-4.910907-1.933008-8.012385-6.633171-8.012385-4.509324 0-8.824733 2.455143-8.824733 10.919808V93H532V51.90456h7.470397l1.157342 7.947596C542.819301 53.713677 547.519464 51 553.700163 51Zm-297.65093-10C269.295087 41 275 46.970338 275 57.498892c0 10.592616-6.295087 17.2048-18.032753 17.2048h-8.262125V93H239V41h17.049233Zm216.844228 10C479.791481 51 485 54.741732 485 63.515874V92.93531h-9.374712v-26.12898c0-4.903342-1.885521-7.870976-6.378413-7.870976-4.362212 0-8.593745 3.032323-8.593745 10.83861V93h-9.309372V66.806332c0-4.903343-1.885521-7.870976-6.443753-7.870976-4.362212 0-8.528405 3.032322-8.528405 10.903298V93H427V51.967545h7.616759l1.169894 7.870976C437.936645 53.516051 442.883805 51 448.611931 51c5.728126 0 10.090338 2.386983 11.194893 9.032278C461.891476 53.58043 467.034655 51 472.893461 51ZM343 51v9.851825c-.459645-.064988-.856325-.064678-1.31597-.064678-5.468518 0-11.19834 3.88874-11.19834 12.055527V93H321V51.842363h8.037493l1.183743 11.213164C331.669433 56.76843 335.491414 51.907352 343 51Zm64.517975 22.33942h-1.09044c-9.804772 0-13.137353 4.067626-13.137353 8.52244 0 3.034612 2.052233 5.294232 5.832017 5.294232 4.741577 0 8.395776-3.809295 8.395776-8.328846V73.33942Zm-104.999722 0h-1.089478c-9.804376 0-13.136823 4.067626-13.136823 8.52244 0 3.034612 2.050618 5.294232 5.831475 5.294232 4.741998 0 8.394826-3.809295 8.394826-8.328846V73.33942Zm206.26287-15.183527c-5.460098 0-8.904495 3.80357-9.553619 10.121304h17.610215c.065223-.515575.065223-1.03146.065223-1.611676 0-4.706059-3.056164-8.509628-8.121819-8.509628Zm-252.994224-9.2594h-7.147596V67h7.213415c6.950766 0 9.311463-3.466708 9.311463-8.987692 0-5.970339-3.1477-9.115815-9.377282-9.115815ZM102.21911 58C103.324389 58.617657 104 59.85297 104 61.499835c0 1.647195-.675611 2.882508-1.78089 3.500165-.184017-.892244-.859628-1.5099-1.719257-1.5099-.920967 0-1.534946.617656-1.719257 1.5099C97.675318 64.382343 97 63.14703 97 61.499835c0-1.646865.675318-2.882178 1.780596-3.499835.184311.892244.79829 1.5099 1.719257 1.5099.859629 0 1.53524-.617656 1.719257-1.5099ZM373 35c3.494748 0 6 2.637425 6 6.000158C379 44.428684 376.494748 47 373 47s-6-2.637425-6-5.999842C367 37.637425 369.505252 35 373 35ZM54.03259 0c2.99282 0 5.98564.128926 8.913467.322316l1.105826 1.09587c-4.033652 1.095872-6.961479 4.641345-6.961479 8.960356 3.122808-.451242 5.920647-1.99835 7.937628-4.254561l1.105826 1.095865v11.79675l-1.17113 1.095864c-2.01667-2.256211-4.81451-3.803318-7.937318-4.31901v.773553c0 5.414876 4.424237 9.862849 9.9543 9.862849 2.277267 0 4.424236-.773554 6.115938-2.06283-.055842-.082878-.09969-.153918-.131566-.208044l-.047802-.084197c-.010618-.019546-.015924-.030071-.015924-.030071-.455267-.773554-.650559-1.676038-.455267-2.642973.14231-.70507.458961-1.151028.802848-1.564594l.297998-.351841c.347441-.413565.680087-.859516.850831-1.564572.390585-1.611588-.650559-3.223146-2.276956-3.545457-1.30143-.257862-2.537554.25783-3.188113 1.289245-.585565-.838034-.84585-1.869419-.585565-2.965315.455267-2.0628 2.537243-3.352076 4.619218-2.900834 1.366423.257862 2.342261 1.224796 2.79784 2.385142-.195293-.966934-.1303-1.99835.064993-2.965284.520571-2.449592 2.146969-4.447973 4.293938-5.543838 1.431416 1.9339 2.081975 4.383492 1.561715 6.833084-.195292.966934-.65056 1.869419-1.17113 2.707454.910844-.902485 2.211962-1.289277 3.513391-1.031416 2.081975.451242 3.383093 2.514073 2.927516 4.576873-.194982 1.095865-.910845 1.9339-1.756385 2.449592-.195292-1.224796-1.106137-2.256212-2.342262-2.514042-1.626708-.386793-3.253106.644623-3.578385 2.256211-.32528 1.611558.650559 2.385111.32528 3.9967-.195293 1.160315-1.041144 2.0628-2.016982 2.514042 1.366422 2.771934 4.293938 4.641353 7.612349 4.641353 3.51308 0 6.571205-2.12728 7.872323-5.157046-.455578-.06448-.975838-.12893-1.49641-.12893-1.49641 0-2.927826.386792-4.228944 1.031415l-.32528-1.353727v-.06445c1.105826-1.611588 2.01667-3.352076 2.862522-5.157045.845851-1.86945 1.49641-3.73887 2.016982-5.608288l1.301118-.644623c.520571 1.933869 1.561715 3.609907 3.058125 4.705803.84585-3.416557.52026-6.833084-.97615-9.411607l1.30143-.644653c2.211962.773584 5.204782 1.99838 7.417056 2.900865L91.247862 39c-11.385716-5.02796-23.942873-7.799864-37.215272-7.799864-13.27271 0-25.829618 2.771904-37.215427 7.799864L4 10.507473c2.212087-.966935 5.204939-2.12728 7.417026-2.900834l1.301242.644623c-1.49641 2.578522-1.886776 5.99508-.975932 9.411606 1.49641-1.095865 2.537398-2.771903 3.057908-4.705803l1.301242.644623c.520478 1.9339 1.1711 3.803319 2.01692 5.608288.845788 1.804969 1.82172 3.545488 2.862708 5.157045v.064481l-.32531 1.353696c-1.236187-.644623-2.667541-1.031384-4.229007-1.031384-.52051 0-.975932.06445-1.496442.12893 1.301243 3.029735 4.294094 5.157015 7.87248 5.157015 3.318161 0 6.18087-1.869419 7.612224-4.641322-1.040988-.451243-1.82172-1.353727-2.081975-2.514073-.32531-1.611558.715677-2.385111.32531-3.9967-.32531-1.611557-1.951832-2.578523-3.578385-2.256211-1.301243.322311-2.147032 1.289277-2.34223 2.514073-.84579-.515723-1.49641-1.353727-1.756665-2.449592-.455423-2.06283.845789-4.12563 2.927764-4.576873 1.301243-.257861 2.602485.128931 3.51336 1.031385-.520509-.773554-.97593-1.740489-1.17113-2.707423-.585565-2.449623.065056-4.899215 1.561497-6.833084 2.147032 1.160315 3.773522 3.094215 4.294094 5.543807.195292 1.031415.195292 1.99835.064994 2.965315.455578-1.160346 1.49641-2.12728 2.797839-2.385142 2.081975-.451242 4.16395.838004 4.619218 2.900834.195292 1.095866 0 2.127281-.585566 2.965285-.650559-1.031385-1.951677-1.547108-3.188112-1.289246-1.626397.322311-2.602236 1.9339-2.276956 3.545457.14231.70507.4714 1.151028.82384 1.564595l.303996.35184c.35244.413565.68153.859516.82384 1.564572.195293.902485 0 1.86942-.455266 2.643004 0 0-.064994.1289-.130299.322311 1.626709 1.289246 3.773678 2.0628 6.050945 2.0628 5.46507 0 9.9543-4.383492 9.9543-9.862849v-.773554c-3.122808.515724-5.920647 2.062831-7.937629 4.319042l-1.040832-1.031415V7.219846l1.106137-1.095865c2.01667 2.191761 4.81451 3.738869 7.937317 4.254561 0-4.31901-2.927515-7.928946-6.961479-8.960355L45.119123.322316C48.04695.128926 51.03977 0 54.03259 0Z"/></svg>
