<?xml version="1.0" encoding="utf-8"?>
<!-- Generator: Adobe Illustrator 16.0.4, SVG Export Plug-In . SVG Version: 6.00 Build 0)  -->
<svg version="1.2" baseProfile="tiny" id="crowned_portcullis"
	 xmlns="http://www.w3.org/2000/svg" xmlns:xlink="http://www.w3.org/1999/xlink" x="0px" y="0px" width="41px" height="48px"
	 viewBox="159.5 374.5 41 48" xml:space="preserve">
<g id="Crown_8_">
	<ellipse fill="#FFFFFF" cx="168.394" cy="385.234" rx="0.793" ry="0.771"/>
	<ellipse fill="#FFFFFF" cx="175.495" cy="383.709" rx="0.793" ry="0.771"/>
	<path fill="#FFFFFF" d="M196.771,378.731c1.003,1.507,1.668,3.153,0.276,4.935c-1.251-0.386-1.673-1.803-1.936-3.41l-2.397,4.218
		c1.503-0.668,2.865-1.37,3.873-0.137c-1.527,2.06-5.771,4.456-7.048,1.011c0.136-0.192,0.238-0.416,0.298-0.664
		c0.126-0.52,0.037-1.032-0.206-1.412c1.086-2.753,2.564-1.828,3.402-0.514c0.05-1.465,0.235-3.487-2.96-1.562
		c0.692-1.612,0.44-4.325,0.153-4.392c-0.288-0.065-1.759,2.255-1.876,3.999c-1.981-3.108-2.741-1.218-3.367,0.114
		c1.352-0.814,3.102-1,2.816,1.935c-0.394,0.235-0.712,0.655-0.836,1.175c-0.06,0.246-0.071,0.489-0.041,0.718
		c-3.617,1.206-4.539,0.31-6.384-3.279v-1.569c0.186-0.046,0.186-0.135,0.231-0.314c1.763-0.01,2.99,1.037,3.688,2.109v-4.754
		c-0.688,1.22-2.077,2.093-3.688,2.017c-0.046-0.181-0.046-0.27-0.231-0.314c0.251-1.637,0.938-2.354,2.583-3.138l-3.109-0.002l0,0
		H180h-0.014l0,0l-3.108,0.002c1.644,0.784,2.333,1.501,2.583,3.138c-0.185,0.045-0.185,0.134-0.23,0.314
		c-1.611,0.076-3.002-0.797-3.688-2.017v4.754c0.697-1.072,1.924-2.119,3.688-2.109c0.046,0.18,0.046,0.269,0.23,0.314v1.569
		c-1.844,3.589-2.768,4.485-6.385,3.279c0.031-0.229,0.019-0.472-0.039-0.718c-0.127-0.52-0.443-0.939-0.838-1.175
		c-0.285-2.935,1.465-2.749,2.816-1.935c-0.626-1.332-1.386-3.223-3.366-0.114c-0.118-1.744-1.587-4.064-1.877-3.999
		c-0.286,0.066-0.539,2.779,0.153,4.392c-3.195-1.926-3.01,0.097-2.96,1.562c0.838-1.315,2.316-2.239,3.404,0.513
		c-0.244,0.381-0.332,0.894-0.208,1.413c0.061,0.248,0.164,0.472,0.298,0.664c-1.277,3.445-5.519,1.049-7.048-1.011
		c1.009-1.233,2.37-0.531,3.875,0.137l-2.399-4.218c-0.263,1.607-0.685,3.024-1.936,3.41c-1.389-1.781-0.727-3.428,0.276-4.935
		L160,380.525l6.18,10.318c4.023-2.554,8.936-3.757,13.807-3.68l0,0c0.005,0,0.01,0,0.014,0s0.009,0,0.014,0l0,0
		c4.871-0.077,9.783,1.126,13.807,3.68l6.18-10.318L196.771,378.731z"/>
	<ellipse fill="#FFFFFF" cx="191.608" cy="385.234" rx="0.791" ry="0.771"/>
	<ellipse fill="#FFFFFF" cx="184.505" cy="383.709" rx="0.794" ry="0.771"/>
</g>
<g>
	<g>
		<rect x="164.5" y="392.092" fill="#FFFFFF" width="2" height="0.816"/>
		<rect x="163.069" y="393.5" fill="#FFFFFF" width="1.054" height="4"/>
		<path fill="#FFFFFF" d="M164.293,401.472h-1.586c-0.65,0-1.178-0.529-1.178-1.179v-2.586c0-0.649,0.528-1.179,1.178-1.179h1.586
			c0.65,0,1.178,0.529,1.178,1.179v2.586C165.471,400.942,164.943,401.472,164.293,401.472z M162.707,397.472
			c-0.128,0-0.236,0.107-0.236,0.235v2.586c0,0.128,0.108,0.235,0.236,0.235h1.586c0.128,0,0.236-0.107,0.236-0.235v-2.586
			c0-0.128-0.108-0.235-0.236-0.235H162.707z"/>
		<rect x="163.069" y="400.5" fill="#FFFFFF" width="1.054" height="4"/>
		<path fill="#FFFFFF" d="M164.293,408.472h-1.586c-0.65,0-1.178-0.529-1.178-1.179v-2.586c0-0.649,0.528-1.179,1.178-1.179h1.586
			c0.65,0,1.178,0.529,1.178,1.179v2.586C165.471,407.942,164.943,408.472,164.293,408.472z M162.707,404.472
			c-0.128,0-0.236,0.107-0.236,0.235v2.586c0,0.128,0.108,0.235,0.236,0.235h1.586c0.128,0,0.236-0.107,0.236-0.235v-2.586
			c0-0.128-0.108-0.235-0.236-0.235H162.707z"/>
		<rect x="163.069" y="407.5" fill="#FFFFFF" width="1.054" height="4"/>
		<path fill="#FFFFFF" d="M164.293,415.472h-1.586c-0.65,0-1.178-0.529-1.178-1.179v-2.586c0-0.649,0.528-1.179,1.178-1.179h1.586
			c0.65,0,1.178,0.529,1.178,1.179v2.586C165.471,414.942,164.943,415.472,164.293,415.472z M162.707,411.472
			c-0.128,0-0.236,0.107-0.236,0.235v2.586c0,0.128,0.108,0.235,0.236,0.235h1.586c0.128,0,0.236-0.107,0.236-0.235v-2.586
			c0-0.128-0.108-0.235-0.236-0.235H162.707z"/>
		<rect x="163.069" y="414.5" fill="#FFFFFF" width="1.054" height="4"/>
		<path fill="#FFFFFF" d="M164.25,394.5h-1.5c-0.689,0-1.25-0.561-1.25-1.25v-1.5c0-0.689,0.561-1.25,1.25-1.25h1.5
			c0.689,0,1.25,0.561,1.25,1.25v1.5C165.5,393.939,164.939,394.5,164.25,394.5z M162.75,391.5c-0.136,0-0.25,0.114-0.25,0.25v1.5
			c0,0.136,0.114,0.25,0.25,0.25h1.5c0.136,0,0.25-0.114,0.25-0.25v-1.5c0-0.136-0.114-0.25-0.25-0.25H162.75z"/>
		<path fill="#FFFFFF" d="M164.25,421.5h-1.5c-0.689,0-1.25-0.561-1.25-1.25v-1.5c0-0.689,0.561-1.25,1.25-1.25h1.5
			c0.689,0,1.25,0.561,1.25,1.25v1.5C165.5,420.939,164.939,421.5,164.25,421.5z M162.75,418.5c-0.136,0-0.25,0.114-0.25,0.25v1.5
			c0,0.136,0.114,0.25,0.25,0.25h1.5c0.136,0,0.25-0.114,0.25-0.25v-1.5c0-0.136-0.114-0.25-0.25-0.25H162.75z"/>
	</g>
	<g>
		<rect x="193.502" y="392.092" fill="#FFFFFF" width="2" height="0.816"/>
		<rect x="195.879" y="393.5" fill="#FFFFFF" width="1.054" height="4"/>
		<path fill="#FFFFFF" d="M197.295,401.472h-1.586c-0.65,0-1.178-0.529-1.178-1.179v-2.586c0-0.649,0.528-1.179,1.178-1.179h1.586
			c0.65,0,1.178,0.529,1.178,1.179v2.586C198.473,400.942,197.945,401.472,197.295,401.472z M195.709,397.472
			c-0.128,0-0.236,0.107-0.236,0.235v2.586c0,0.128,0.108,0.235,0.236,0.235h1.586c0.128,0,0.236-0.107,0.236-0.235v-2.586
			c0-0.128-0.108-0.235-0.236-0.235H195.709z"/>
		<rect x="195.879" y="400.5" fill="#FFFFFF" width="1.054" height="4"/>
		<path fill="#FFFFFF" d="M197.295,408.472h-1.586c-0.65,0-1.178-0.529-1.178-1.179v-2.586c0-0.649,0.528-1.179,1.178-1.179h1.586
			c0.65,0,1.178,0.529,1.178,1.179v2.586C198.473,407.942,197.945,408.472,197.295,408.472z M195.709,404.472
			c-0.128,0-0.236,0.107-0.236,0.235v2.586c0,0.128,0.108,0.235,0.236,0.235h1.586c0.128,0,0.236-0.107,0.236-0.235v-2.586
			c0-0.128-0.108-0.235-0.236-0.235H195.709z"/>
		<rect x="195.879" y="407.5" fill="#FFFFFF" width="1.054" height="4"/>
		<path fill="#FFFFFF" d="M197.295,415.472h-1.586c-0.65,0-1.178-0.529-1.178-1.179v-2.586c0-0.649,0.528-1.179,1.178-1.179h1.586
			c0.65,0,1.178,0.529,1.178,1.179v2.586C198.473,414.942,197.945,415.472,197.295,415.472z M195.709,411.472
			c-0.128,0-0.236,0.107-0.236,0.235v2.586c0,0.128,0.108,0.235,0.236,0.235h1.586c0.128,0,0.236-0.107,0.236-0.235v-2.586
			c0-0.128-0.108-0.235-0.236-0.235H195.709z"/>
		<rect x="195.879" y="414.5" fill="#FFFFFF" width="1.054" height="4"/>
		<path fill="#FFFFFF" d="M197.252,394.5h-1.5c-0.689,0-1.25-0.561-1.25-1.25v-1.5c0-0.689,0.561-1.25,1.25-1.25h1.5
			c0.689,0,1.25,0.561,1.25,1.25v1.5C198.502,393.939,197.941,394.5,197.252,394.5z M195.752,391.5c-0.136,0-0.25,0.114-0.25,0.25
			v1.5c0,0.136,0.114,0.25,0.25,0.25h1.5c0.136,0,0.25-0.114,0.25-0.25v-1.5c0-0.136-0.114-0.25-0.25-0.25H195.752z"/>
		<path fill="#FFFFFF" d="M197.252,421.5h-1.5c-0.689,0-1.25-0.561-1.25-1.25v-1.5c0-0.689,0.561-1.25,1.25-1.25h1.5
			c0.689,0,1.25,0.561,1.25,1.25v1.5C198.502,420.939,197.941,421.5,197.252,421.5z M195.752,418.5c-0.136,0-0.25,0.114-0.25,0.25
			v1.5c0,0.136,0.114,0.25,0.25,0.25h1.5c0.136,0,0.25-0.114,0.25-0.25v-1.5c0-0.136-0.114-0.25-0.25-0.25H195.752z"/>
	</g>
</g>
<path fill="#FFFFFF" d="M190.5,390.5h-3h-3h-3h-3h-3h-3h-3h-3v3v3v3v3v3v3v3V422l4.5-7.5h-1.5v-3h3v3H171l3,7.5l3-7.5h-1.5v-3h3v3
	H177l3,7.5l3-7.5h-1.5v-3h3v3H183l3,7.5l3-7.5h-1.5v-3h3v3H189l4.5,7.5v-10.5v-3v-3v-3v-3v-3v-3v-3H190.5z M168,391.25
	c0.414,0,0.75,0.336,0.75,0.75s-0.336,0.75-0.75,0.75s-0.75-0.336-0.75-0.75S167.586,391.25,168,391.25z M168,410.75
	c-0.414,0-0.75-0.336-0.75-0.75s0.336-0.75,0.75-0.75s0.75,0.336,0.75,0.75S168.414,410.75,168,410.75z M168,404.75
	c-0.414,0-0.75-0.336-0.75-0.75s0.336-0.75,0.75-0.75s0.75,0.336,0.75,0.75S168.414,404.75,168,404.75z M168,398.75
	c-0.414,0-0.75-0.336-0.75-0.75s0.336-0.75,0.75-0.75s0.75,0.336,0.75,0.75S168.414,398.75,168,398.75z M172.5,408.5h-3v-3h3V408.5z
	 M172.5,402.5h-3v-3h3V402.5z M172.5,396.5h-3v-3h3V396.5z M174,410.75c-0.414,0-0.75-0.336-0.75-0.75s0.336-0.75,0.75-0.75
	s0.75,0.336,0.75,0.75S174.414,410.75,174,410.75z M174,404.75c-0.414,0-0.75-0.336-0.75-0.75s0.336-0.75,0.75-0.75
	s0.75,0.336,0.75,0.75S174.414,404.75,174,404.75z M174,398.75c-0.414,0-0.75-0.336-0.75-0.75s0.336-0.75,0.75-0.75
	s0.75,0.336,0.75,0.75S174.414,398.75,174,398.75z M174,392.75c-0.414,0-0.75-0.336-0.75-0.75s0.336-0.75,0.75-0.75
	s0.75,0.336,0.75,0.75S174.414,392.75,174,392.75z M178.5,408.5h-3v-3h3V408.5z M178.5,402.5h-3v-3h3V402.5z M178.5,396.5h-3v-3h3
	V396.5z M180,410.75c-0.414,0-0.75-0.336-0.75-0.75s0.336-0.75,0.75-0.75s0.75,0.336,0.75,0.75S180.414,410.75,180,410.75z
	 M180,404.75c-0.414,0-0.75-0.336-0.75-0.75s0.336-0.75,0.75-0.75s0.75,0.336,0.75,0.75S180.414,404.75,180,404.75z M180,398.75
	c-0.414,0-0.75-0.336-0.75-0.75s0.336-0.75,0.75-0.75s0.75,0.336,0.75,0.75S180.414,398.75,180,398.75z M180,392.75
	c-0.414,0-0.75-0.336-0.75-0.75s0.336-0.75,0.75-0.75s0.75,0.336,0.75,0.75S180.414,392.75,180,392.75z M184.5,408.5h-3v-3h3V408.5z
	 M184.5,402.5h-3v-3h3V402.5z M184.5,396.5h-3v-3h3V396.5z M186,410.75c-0.414,0-0.75-0.336-0.75-0.75s0.336-0.75,0.75-0.75
	s0.75,0.336,0.75,0.75S186.414,410.75,186,410.75z M186,404.75c-0.414,0-0.75-0.336-0.75-0.75s0.336-0.75,0.75-0.75
	s0.75,0.336,0.75,0.75S186.414,404.75,186,404.75z M186,398.75c-0.414,0-0.75-0.336-0.75-0.75s0.336-0.75,0.75-0.75
	s0.75,0.336,0.75,0.75S186.414,398.75,186,398.75z M186,392.75c-0.414,0-0.75-0.336-0.75-0.75s0.336-0.75,0.75-0.75
	s0.75,0.336,0.75,0.75S186.414,392.75,186,392.75z M190.5,408.5h-3v-3h3V408.5z M190.5,402.5h-3v-3h3V402.5z M190.5,396.5h-3v-3h3
	V396.5z M192,410.75c-0.414,0-0.75-0.336-0.75-0.75s0.336-0.75,0.75-0.75s0.75,0.336,0.75,0.75S192.414,410.75,192,410.75z
	 M192,404.75c-0.414,0-0.75-0.336-0.75-0.75s0.336-0.75,0.75-0.75s0.75,0.336,0.75,0.75S192.414,404.75,192,404.75z M192,398.75
	c-0.414,0-0.75-0.336-0.75-0.75s0.336-0.75,0.75-0.75s0.75,0.336,0.75,0.75S192.414,398.75,192,398.75z M192,392.75
	c-0.414,0-0.75-0.336-0.75-0.75s0.336-0.75,0.75-0.75s0.75,0.336,0.75,0.75S192.414,392.75,192,392.75z"/>
</svg>
