<svg xmlns="http://www.w3.org/2000/svg" viewBox="0 0 256 256">
  <style>
    @media (prefers-color-scheme: dark) {
      .logo { fill: #ffffff; }
    }
  </style>

  <path class="logo" fill="#006548" fill-rule="evenodd" d="M221.855 72.97c8.508 0 15.406 6.898 15.406 15.406 0 7.113-4.821 13.1-11.374 14.873v7.69c6.553 1.772 11.374 7.759 11.374 14.872s-4.821 13.1-11.374 14.872v7.69c6.553 1.772 11.374 7.76 11.374 14.872 0 7.113-4.821 13.1-11.374 14.873v7.69c6.553 1.771 11.374 7.759 11.374 14.872s-4.821 13.1-11.374 14.872v7.69c6.553 1.772 11.374 7.759 11.374 14.872 0 8.508-6.898 15.406-15.406 15.406s-15.406-6.898-15.406-15.406c0-7.113 4.822-13.1 11.375-14.873v-7.688c-6.553-1.772-11.375-7.76-11.375-14.873 0-7.114 4.822-13.101 11.375-14.873v-7.689c-6.553-1.772-11.375-7.76-11.375-14.873s4.822-13.1 11.375-14.873v-7.688c-6.553-1.772-11.375-7.76-11.375-14.873 0-7.114 4.822-13.101 11.375-14.873v-7.689a15.44 15.44 0 0 1-10.802-10.697h-7.628V253.52h-1.657c-7.575-21.129-17.492-29.902-17.492-34.267h7.343v-21.885h-17.853v21.885h4.175c0 5.064-6.048 10.129-10.757 34.266h-1.942c-4.178-22.14-10.337-29.878-10.337-32.826v-1.44h3.023v-21.885h-17.853v21.885h4.32c0 1.93-1.812 5.317-4.094 10.971l-.27.676c-2.135 5.376-4.626 12.704-6.422 22.62h-2.474c-3.822-21.098-10.785-30.482-10.785-34.267h3.887v-21.885h-17.853v21.885h3.455v1.44c0 2.948-6.16 10.687-10.337 32.826h-1.942c-4.709-24.137-10.757-29.202-10.757-34.266h3.743v-21.885H68.662v21.885h7.775c0 4.365-9.917 13.138-17.492 34.266h-2.09V92.553h-7.627a15.44 15.44 0 0 1-10.8 10.697v7.69C44.98 112.71 49.8 118.697 49.8 125.81s-4.821 13.1-11.374 14.872v7.69c6.553 1.772 11.374 7.76 11.374 14.872 0 7.113-4.821 13.1-11.374 14.873v7.69c6.553 1.771 11.374 7.759 11.374 14.872s-4.821 13.1-11.374 14.872v7.69c6.553 1.772 11.374 7.759 11.374 14.872 0 8.508-6.898 15.406-15.406 15.406s-15.406-6.898-15.406-15.406c0-7.113 4.821-13.1 11.375-14.873v-7.688c-6.554-1.772-11.375-7.76-11.375-14.873 0-7.114 4.821-13.101 11.375-14.873v-7.689c-6.554-1.772-11.375-7.76-11.375-14.873s4.821-13.1 11.375-14.873v-7.688c-6.554-1.772-11.375-7.76-11.375-14.873 0-7.114 4.821-13.101 11.375-14.873v-7.689c-6.554-1.772-11.375-7.76-11.375-14.873 0-8.508 6.898-15.405 15.406-15.405 7.165 0 13.188 4.892 14.911 11.518h157.638c1.723-6.626 7.746-11.518 14.911-11.518m3.877 158.907-.016.058a4.033 4.033 0 0 1-7.738-.056 7.343 7.343 0 1 0 7.755-.002m-187.46 0-.016.058a4.033 4.033 0 0 1-7.738-.056 7.343 7.343 0 1 0 7.755-.002m0-37.434-.016.058a4.033 4.033 0 0 1-7.739-.058 7.34 7.34 0 0 0-3.465 6.237 7.34 7.34 0 0 0 3.466 6.237 4.033 4.033 0 0 1 7.755-.001 7.34 7.34 0 0 0 3.465-6.236 7.34 7.34 0 0 0-3.466-6.237m187.46 0-.016.058a4.033 4.033 0 0 1-7.739-.058 7.34 7.34 0 0 0-3.465 6.237 7.34 7.34 0 0 0 3.466 6.237 4.033 4.033 0 0 1 7.755-.001 7.34 7.34 0 0 0 3.465-6.236 7.34 7.34 0 0 0-3.466-6.237m-105.526-30.766h-17.853v21.885h17.853zm-33.69 0H68.661v21.885h17.853zm101.072 0h-17.853v21.885h17.853zm-33.69 0h-17.854v21.885h17.853zm-115.626-6.669-.016.059a4.033 4.033 0 0 1-7.738-.057 7.33 7.33 0 0 0-3.466 6.235 7.34 7.34 0 0 0 3.466 6.237 4.033 4.033 0 0 1 7.754-.002 7.33 7.33 0 0 0 3.466-6.235 7.34 7.34 0 0 0-3.466-6.237m187.46 0-.016.059a4.033 4.033 0 0 1-7.738-.057 7.33 7.33 0 0 0-3.466 6.235 7.34 7.34 0 0 0 3.466 6.237 4.033 4.033 0 0 1 7.754-.002 7.33 7.33 0 0 0 3.466-6.235 7.34 7.34 0 0 0-3.466-6.237M86.515 129.986H68.662v21.885h17.853zm33.691 0h-17.853v21.885h17.853zm33.691 0h-17.853v21.885h17.853zm33.691 0h-17.853v21.885h17.853zm38.144-10.412-.016.058a4.033 4.033 0 0 1-7.739-.057 7.34 7.34 0 0 0-3.465 6.236 7.34 7.34 0 0 0 3.466 6.237 4.033 4.033 0 0 1 7.755-.001 7.34 7.34 0 0 0 3.465-6.236 7.34 7.34 0 0 0-3.466-6.237m-187.46 0-.016.058a4.033 4.033 0 0 1-7.739-.057 7.34 7.34 0 0 0-3.465 6.236 7.34 7.34 0 0 0 3.466 6.237 4.033 4.033 0 0 1 7.755-.001 7.34 7.34 0 0 0 3.465-6.236 7.34 7.34 0 0 0-3.466-6.237m149.316-23.279h-17.853v21.885h17.853zm-33.69 0h-17.854v21.885h17.853zm-33.692 0h-17.853v21.885h17.853zm-33.69 0H68.661v21.885h17.853zM34.394 81.033a7.343 7.343 0 0 0-3.877 13.58 4.033 4.033 0 0 1 7.754-.001 7.343 7.343 0 0 0-3.877-13.578m187.46 0a7.343 7.343 0 0 0-3.877 13.58 4.033 4.033 0 0 1 7.754-.001 7.343 7.343 0 0 0-3.877-13.578m-76.74-78.468c1.44.576 2.303 1.152 3.311 2.592-4.32 1.152-13.822 6.623-13.75 17.925 6.551-1.224 12.31-4.823 15.622-8.71q.863.575 2.447 2.735 1.08 12.03 0 23.469c-.576 1.295-1.727 2.16-2.447 2.447-4.32-3.743-9.071-7.199-15.838-8.639-.288 12.959 9.79 21.31 19.437 21.31 6.191 0 8.639-1.728 11.95-3.672 0-1.656-.863-2.232-.863-4.823 0-5.184 4.319-6.192 4.319-10.079s-3.456-5.76-5.903-5.76c-2.448 0-4.104 1.729-5.04 2.88-1.08-1.295-1.727-2.735-1.727-4.607 0-4.895 4.607-8.35 7.919-8.279 3.311.072 4.75.576 6.91 3.528.432-6.623 2.592-12.238 9.503-15.262 4.895 5.471 4.32 12.382 1.872 17.997 1.008-.575 2.447-1.007 4.751-1.007 4.176 0 7.487 3.6 7.487 7.918 0 4.32-2.304 6.48-4.031 6.48-1.152-2.448-2.48-4.602-5.328-4.896-2.847-.294-5.903 1.584-6.19 4.751-.289 3.168.575 5.04.575 7.2s-2.16 5.183-3.743 5.903c1.44 4.463 7.343 9.214 14.83 9.214 9.358 0 14.977-7.83 15.261-10.366-3.887-.288-7.775.288-11.374 1.871l-.576-3.023c6.48-8.927 9.503-21.597 10.223-22.029q.72-.432 2.303-1.152 2.016 6.48 5.903 9.215c1.008-4.463.864-12.814-1.871-18.573l2.16-1.44 1.295-.072 14.398 5.831q-20.661 47.081-25.772 58.023c-26.78-11.374-53.416-15.981-75.013-15.981S79.892 70.09 53.112 81.465q-5.11-10.942-25.772-58.023l14.398-5.831 1.296.072 1.965 1.31.108.072.086.058c-2.735 5.759-2.88 14.11-1.871 18.573q3.887-2.735 5.903-9.215 1.584.72 2.303 1.152c.72.432 3.744 13.102 10.223 22.029l-.576 3.023c-3.6-1.583-7.487-2.16-11.374-1.871.284 2.535 5.903 10.366 15.261 10.366 7.487 0 13.39-4.751 14.83-9.214-1.584-.72-3.743-3.744-3.743-5.904 0-.822.125-1.603.264-2.43l.106-.63c.191-1.176.356-2.48.206-4.139-.288-3.167-3.344-5.045-6.191-4.75-2.848.293-4.176 2.447-5.328 4.894-1.727 0-4.031-2.16-4.031-6.479s3.311-7.918 7.487-7.918c2.304 0 3.743.432 4.751 1.007-2.447-5.615-3.023-12.526 1.872-17.997 6.91 3.024 9.07 8.639 9.502 15.262 2.16-2.952 3.6-3.456 6.911-3.528 3.312-.072 7.92 3.384 7.92 8.28 0 1.87-.649 3.31-1.728 4.606-.936-1.151-2.592-2.88-5.04-2.88s-5.903 1.873-5.903 5.76 4.32 4.895 4.32 10.079c0 2.591-.864 3.167-.864 4.823 3.311 1.944 5.759 3.671 11.95 3.671 9.646 0 19.725-8.35 19.437-21.309-6.767 1.44-11.518 4.896-15.838 8.64-.72-.289-1.871-1.153-2.447-2.448q-1.08-11.44 0-23.469 1.583-2.16 2.447-2.736c3.312 3.888 9.071 7.487 15.622 8.711.072-11.302-9.43-16.773-13.75-17.925 1.008-1.44 1.872-2.016 3.312-2.592 5.47-.36 11.014-.648 16.989-.576 5.975-.072 11.518.216 16.99.576"/>
</svg>
